<svg xmlns="http://www.w3.org/2000/svg" version="1.1" xmlns:xlink="http://www.w3.org/1999/xlink" xmlns:svgjs="http://svgjs.dev/svgjs" viewBox="0 0 16.49480763040615 17.147753806718736"><g transform="matrix(1,0,0,1,1.401456549578075,13.452445694640659)"><g><path d=" M 0.532470703125 0.5910644531250002 L 0.532470703125 0.8085937500000002 Q 0.532470703125 0.8708496093750002 0.533935546875 0.9173583984375002 Q 0.535400390625 0.9638671875000002 0.538330078125 0.9975585937500002 Q 0.541259765625 1.0312500000000002 0.5452880859375 1.0539550781250002 Q 0.54931640625 1.0766601562500002 0.5537109375 1.0920410156250002 L 0.5537109375 1.0949707031250002 L 0.3779296875 1.0949707031250002 L 0.3779296875 1.0920410156250002 Q 0.38232421875 1.0766601562500002 0.3863525390625 1.0539550781250002 Q 0.390380859375 1.0312500000000002 0.3929443359375 0.9975585937500002 Q 0.3955078125 0.9638671875000002 0.3973388671875 0.9173583984375002 Q 0.399169921875 0.8708496093750002 0.399169921875 0.8085937500000002 L 0.399169921875 0.6057128906250002 L 0.07177734375 0.16040039062500022 Q 0.054931640625 0.13769531250000022 0.0384521484375 0.11865234375000022 Q 0.02197265625 0.09960937500000022 0.00732421875 0.08532714843750022 Q -0.00732421875 0.07104492187500022 -0.01904296875 0.06152343750000022 Q -0.03076171875 0.05200195312500022 -0.037353515625 0.04760742187500022 L -0.037353515625 0.04467773437500022 L 0.1845703125 0.04467773437500022 Q 0.1845703125 0.06152343750000022 0.1988525390625 0.09997558593750022 Q 0.213134765625 0.13842773437500022 0.25048828125 0.19042968750000022 L 0.49072265625 0.5192871093750002 L 0.725830078125 0.17578125000000022 Q 0.73828125 0.15747070312500022 0.750732421875 0.13842773437500022 Q 0.76318359375 0.11938476562500022 0.7734375 0.10180664062500022 Q 0.78369140625 0.08422851562500022 0.7899169921875 0.06958007812500022 Q 0.796142578125 0.05493164062500022 0.796142578125 0.04467773437500022 L 0.93896484375 0.04467773437500022 L 0.93896484375 0.04760742187500022 Q 0.9228515625 0.06152343750000022 0.895751953125 0.08898925781250022 Q 0.86865234375 0.11645507812500022 0.837158203125 0.16186523437500022 L 0.532470703125 0.5910644531250002 M 0.87744140625 0.7185058593750002 Q 0.87744140625 0.6357421875000002 0.908203125 0.5650634765625002 Q 0.93896484375 0.4943847656250002 0.9927978515625 0.4423828125000002 Q 1.046630859375 0.3903808593750002 1.119873046875 0.3610839843750002 Q 1.193115234375 0.3317871093750002 1.27734375 0.3317871093750002 Q 1.360107421875 0.3317871093750002 1.4329833984375 0.3592529296875002 Q 1.505859375 0.3867187500000002 1.56005859375 0.4372558593750002 Q 1.6142578125 0.4877929687500002 1.6453857421875 0.5603027343750002 Q 1.676513671875 0.6328125000000002 1.676513671875 0.7229003906250002 Q 1.676513671875 0.7983398437500002 1.650146484375 0.8679199218750002 Q 1.623779296875 0.9375000000000002 1.572509765625 0.9909667968750002 Q 1.521240234375 1.0444335937500002 1.4468994140625 1.0762939453125002 Q 1.37255859375 1.1081542968750002 1.27587890625 1.1081542968750002 Q 1.19384765625 1.1081542968750002 1.121337890625 1.0810546875000002 Q 1.048828125 1.0539550781250002 0.99462890625 1.0034179687500002 Q 0.9404296875 0.9528808593750002 0.908935546875 0.8807373046875002 Q 0.87744140625 0.8085937500000002 0.87744140625 0.7185058593750002 M 1.292724609375 1.0546875000000002 Q 1.3447265625 1.0546875000000002 1.3883056640625 1.0341796875000002 Q 1.431884765625 1.0136718750000002 1.46337890625 0.9748535156250002 Q 1.494873046875 0.9360351562500002 1.512451171875 0.8803710937500002 Q 1.530029296875 0.8247070312500002 1.530029296875 0.7543945312500002 Q 1.530029296875 0.6752929687500002 1.51318359375 0.6075439453125002 Q 1.496337890625 0.5397949218750002 1.4630126953125 0.4903564453125002 Q 1.4296875 0.4409179687500002 1.379150390625 0.4130859375000002 Q 1.32861328125 0.3852539062500002 1.26123046875 0.3852539062500002 Q 1.209228515625 0.3852539062500002 1.166015625 0.4053955078125002 Q 1.122802734375 0.4255371093750002 1.0909423828125 0.4636230468750002 Q 1.05908203125 0.5017089843750002 1.04150390625 0.5570068359375002 Q 1.02392578125 0.6123046875000002 1.02392578125 0.6826171875000002 Q 1.02392578125 0.7617187500000002 1.0411376953125 0.8298339843750002 Q 1.058349609375 0.8979492187500002 1.092041015625 0.9481201171875002 Q 1.125732421875 0.9982910156250002 1.1759033203125 1.0264892578125002 Q 1.22607421875 1.0546875000000002 1.292724609375 1.0546875000000002 M 1.962890625 0.8386230468750002 Q 1.962890625 0.9353027343750002 2.0013427734375 0.9807128906250002 Q 2.039794921875 1.0261230468750002 2.10498046875 1.0261230468750002 Q 2.12841796875 1.0261230468750002 2.15771484375 1.0162353515625002 Q 2.18701171875 1.0063476562500002 2.2181396484375 0.9898681640625002 Q 2.249267578125 0.9733886718750002 2.2803955078125 0.9514160156250002 Q 2.3115234375 0.9294433593750002 2.337890625 0.9045410156250002 Q 2.33935546875 0.8833007812500002 2.33935546875 0.8594970703125002 Q 2.33935546875 0.8356933593750002 2.33935546875 0.8085937500000002 L 2.33935546875 0.6313476562500002 Q 2.33935546875 0.5690917968750002 2.3375244140625 0.5225830078125002 Q 2.335693359375 0.4760742187500002 2.3331298828125 0.4423828125000002 Q 2.33056640625 0.4086914062500002 2.3265380859375 0.3859863281250002 Q 2.322509765625 0.3632812500000002 2.318115234375 0.3479003906250002 L 2.318115234375 0.3449707031250002 L 2.4873046875 0.3449707031250002 L 2.4873046875 0.3479003906250002 Q 2.48291015625 0.3632812500000002 2.479248046875 0.3859863281250002 Q 2.4755859375 0.4086914062500002 2.47265625 0.4423828125000002 Q 2.4697265625 0.4760742187500002 2.46826171875 0.5225830078125002 Q 2.466796875 0.5690917968750002 2.466796875 0.6313476562500002 L 2.466796875 0.8085937500000002 Q 2.466796875 0.8708496093750002 2.46826171875 0.9173583984375002 Q 2.4697265625 0.9638671875000002 2.47265625 0.9975585937500002 Q 2.4755859375 1.0312500000000002 2.479248046875 1.0539550781250002 Q 2.48291015625 1.0766601562500002 2.4873046875 1.0920410156250002 L 2.4873046875 1.0949707031250002 L 2.318115234375 1.0949707031250002 L 2.318115234375 1.0920410156250002 Q 2.322509765625 1.0737304687500002 2.3272705078125 1.0451660156250002 Q 2.33203125 1.0166015625000002 2.334228515625 0.9704589843750002 Q 2.30419921875 0.9960937500000002 2.2694091796875 1.0209960937500002 Q 2.234619140625 1.0458984375000002 2.1968994140625 1.0656738281250002 Q 2.1591796875 1.0854492187500002 2.1207275390625 1.0975341796875002 Q 2.082275390625 1.1096191406250002 2.044921875 1.1096191406250002 Q 1.98779296875 1.1096191406250002 1.9478759765625 1.0898437500000002 Q 1.907958984375 1.0700683593750002 1.8826904296875 1.0378417968750002 Q 1.857421875 1.0056152343750002 1.8460693359375 0.9645996093750002 Q 1.834716796875 0.9235839843750002 1.834716796875 0.8803710937500002 L 1.834716796875 0.6313476562500002 Q 1.834716796875 0.5690917968750002 1.833251953125 0.5225830078125002 Q 1.831787109375 0.4760742187500002 1.828857421875 0.4423828125000002 Q 1.825927734375 0.4086914062500002 1.822265625 0.3859863281250002 Q 1.818603515625 0.3632812500000002 1.814208984375 0.3479003906250002 L 1.814208984375 0.3449707031250002 L 1.9833984375 0.3449707031250002 L 1.9833984375 0.3479003906250002 Q 1.97900390625 0.3632812500000002 1.975341796875 0.3859863281250002 Q 1.9716796875 0.4086914062500002 1.96875 0.4423828125000002 Q 1.9658203125 0.4760742187500002 1.96435546875 0.5225830078125002 Q 1.962890625 0.5690917968750002 1.962890625 0.6313476562500002 L 1.962890625 0.8386230468750002 M 3.19482421875 0.6013183593750002 Q 3.19482421875 0.5046386718750002 3.156005859375 0.4592285156250002 Q 3.1171875 0.4138183593750002 3.052001953125 0.4138183593750002 Q 3.028564453125 0.4138183593750002 2.999267578125 0.4237060546875002 Q 2.969970703125 0.4335937500000002 2.939208984375 0.4500732421875002 Q 2.908447265625 0.4665527343750002 2.877685546875 0.4885253906250002 Q 2.846923828125 0.5104980468750002 2.81982421875 0.5354003906250002 L 2.818359375 0.6313476562500002 L 2.818359375 0.8085937500000002 Q 2.818359375 0.8708496093750002 2.81982421875 0.9173583984375002 Q 2.8212890625 0.9638671875000002 2.82421875 0.9975585937500002 Q 2.8271484375 1.0312500000000002 2.830810546875 1.0539550781250002 Q 2.83447265625 1.0766601562500002 2.8388671875 1.0920410156250002 L 2.8388671875 1.0949707031250002 L 2.669677734375 1.0949707031250002 L 2.669677734375 1.0920410156250002 Q 2.674072265625 1.0766601562500002 2.6781005859375 1.0539550781250002 Q 2.68212890625 1.0312500000000002 2.6846923828125 0.9975585937500002 Q 2.687255859375 0.9638671875000002 2.6890869140625 0.9173583984375002 Q 2.69091796875 0.8708496093750002 2.69091796875 0.8085937500000002 L 2.69091796875 0.6313476562500002 Q 2.69091796875 0.5690917968750002 2.6890869140625 0.5225830078125002 Q 2.687255859375 0.4760742187500002 2.6846923828125 0.4423828125000002 Q 2.68212890625 0.4086914062500002 2.6781005859375 0.3859863281250002 Q 2.674072265625 0.3632812500000002 2.669677734375 0.3479003906250002 L 2.669677734375 0.3449707031250002 L 2.8388671875 0.3449707031250002 L 2.8388671875 0.3479003906250002 Q 2.8330078125 0.3662109375000002 2.8297119140625 0.3944091796875002 Q 2.826416015625 0.4226074218750002 2.82275390625 0.4680175781250002 Q 2.852783203125 0.4431152343750002 2.8875732421875 0.4182128906250002 Q 2.92236328125 0.3933105468750002 2.959716796875 0.3739013671875002 Q 2.9970703125 0.3544921875000002 3.035888671875 0.3424072265625002 Q 3.07470703125 0.3303222656250002 3.112060546875 0.3303222656250002 Q 3.169189453125 0.3303222656250002 3.2091064453125 0.3500976562500002 Q 3.2490234375 0.3698730468750002 3.2742919921875 0.4020996093750002 Q 3.299560546875 0.4343261718750002 3.3109130859375 0.4757080078125002 Q 3.322265625 0.5170898437500002 3.322265625 0.5595703125000002 L 3.322265625 0.8085937500000002 Q 3.322265625 0.8708496093750002 3.32373046875 0.9173583984375002 Q 3.3251953125 0.9638671875000002 3.328125 0.9975585937500002 Q 3.3310546875 1.0312500000000002 3.334716796875 1.0539550781250002 Q 3.33837890625 1.0766601562500002 3.3427734375 1.0920410156250002 L 3.3427734375 1.0949707031250002 L 3.173583984375 1.0949707031250002 L 3.173583984375 1.0920410156250002 Q 3.177978515625 1.0766601562500002 3.1820068359375 1.0539550781250002 Q 3.18603515625 1.0312500000000002 3.1885986328125 0.9975585937500002 Q 3.191162109375 0.9638671875000002 3.1929931640625 0.9173583984375002 Q 3.19482421875 0.8708496093750002 3.19482421875 0.8085937500000002 L 3.19482421875 0.6013183593750002 M 3.825439453125 1.4296875000000002 Q 3.884765625 1.4296875000000002 3.92578125 1.4168701171875002 Q 3.966796875 1.4040527343750002 3.9935302734375 1.3813476562500002 Q 4.020263671875 1.3586425781250002 4.0345458984375 1.3267822265625002 Q 4.048828125 1.2949218750000002 4.0557861328125 1.2568359375000002 Q 4.062744140625 1.2187500000000002 4.0638427734375 1.1755371093750002 Q 4.06494140625 1.1323242187500002 4.06494140625 1.0861816406250002 L 4.06494140625 1.0620117187500002 Q 4.029052734375 1.0810546875000002 3.978515625 1.0946044921875002 Q 3.927978515625 1.1081542968750002 3.8642578125 1.1081542968750002 Q 3.777099609375 1.1081542968750002 3.7060546875 1.0810546875000002 Q 3.635009765625 1.0539550781250002 3.5848388671875 1.0034179687500002 Q 3.53466796875 0.9528808593750002 3.507568359375 0.8807373046875002 Q 3.48046875 0.8085937500000002 3.48046875 0.7185058593750002 Q 3.48046875 0.6357421875000002 3.5072021484375 0.5646972656250002 Q 3.533935546875 0.4936523437500002 3.5826416015625 0.4416503906250002 Q 3.63134765625 0.3896484375000002 3.6990966796875 0.3599853515625002 Q 3.766845703125 0.3303222656250002 3.848876953125 0.3303222656250002 Q 3.884033203125 0.3303222656250002 3.913330078125 0.3361816406250002 Q 3.942626953125 0.3420410156250002 3.9678955078125 0.3519287109375002 Q 3.9931640625 0.3618164062500002 4.0155029296875 0.3746337890625002 Q 4.037841796875 0.3874511718750002 4.05908203125 0.4020996093750002 L 4.0517578125 0.3479003906250002 L 4.0517578125 0.3449707031250002 L 4.213623046875 0.3449707031250002 L 4.213623046875 0.3479003906250002 Q 4.209228515625 0.3632812500000002 4.2052001953125 0.3859863281250002 Q 4.201171875 0.4086914062500002 4.1986083984375 0.4423828125000002 Q 4.196044921875 0.4760742187500002 4.1942138671875 0.5225830078125002 Q 4.1923828125 0.5690917968750002 4.1923828125 0.6313476562500002 L 4.1923828125 1.1293945312500002 Q 4.1923828125 1.1967773437500002 4.1744384765625 1.2608642578125002 Q 4.156494140625 1.3249511718750002 4.1136474609375 1.3747558593750002 Q 4.07080078125 1.4245605468750002 4.00048828125 1.4545898437500002 Q 3.93017578125 1.4846191406250002 3.825439453125 1.4846191406250002 Q 3.788818359375 1.4846191406250002 3.75146484375 1.4776611328125002 Q 3.714111328125 1.4707031250000002 3.680419921875 1.4608154296875002 Q 3.646728515625 1.4509277343750002 3.61962890625 1.4392089843750002 Q 3.592529296875 1.4274902343750002 3.576416015625 1.4187011718750002 L 3.5537109375 1.2780761718750002 L 3.5654296875 1.2751464843750002 Q 3.5830078125 1.3132324218750002 3.6134033203125 1.3421630859375002 Q 3.643798828125 1.3710937500000002 3.6796875 1.3905029296875002 Q 3.715576171875 1.4099121093750002 3.7540283203125 1.4197998046875002 Q 3.79248046875 1.4296875000000002 3.825439453125 1.4296875000000002 M 3.897216796875 1.0546875000000002 Q 3.949951171875 1.0546875000000002 3.9927978515625 1.0371093750000002 Q 4.03564453125 1.0195312500000002 4.06494140625 0.9960937500000002 L 4.06494140625 0.6313476562500002 Q 4.06494140625 0.5903320312500002 4.064208984375 0.5570068359375002 Q 4.0634765625 0.5236816406250002 4.0634765625 0.4965820312500002 Q 4.0458984375 0.4694824218750002 4.0228271484375 0.4486083984375002 Q 3.999755859375 0.4277343750000002 3.9737548828125 0.4134521484375002 Q 3.94775390625 0.3991699218750002 3.920654296875 0.3914794921875002 Q 3.8935546875 0.3837890625000002 3.8671875 0.3837890625000002 Q 3.8115234375 0.3837890625000002 3.766845703125 0.4042968750000002 Q 3.72216796875 0.4248046875000002 3.6910400390625 0.4632568359375002 Q 3.659912109375 0.5017089843750002 3.6434326171875 0.5570068359375002 Q 3.626953125 0.6123046875000002 3.626953125 0.6826171875000002 Q 3.626953125 0.7617187500000002 3.64453125 0.8298339843750002 Q 3.662109375 0.8979492187500002 3.6961669921875 0.9481201171875002 Q 3.730224609375 0.9982910156250002 3.78076171875 1.0264892578125002 Q 3.831298828125 1.0546875000000002 3.897216796875 1.0546875000000002 M 5.707763671875 0.20581054687500022 L 5.701171875 0.20874023437500022 Q 5.64404296875 0.15600585937500022 5.5638427734375 0.12451171875000022 Q 5.483642578125 0.09301757812500022 5.3876953125 0.09301757812500022 Q 5.29541015625 0.09301757812500022 5.218505859375 0.12194824218750022 Q 5.1416015625 0.15087890625000022 5.0863037109375 0.20581054687500022 Q 5.031005859375 0.2607421875000002 5.000244140625 0.3405761718750002 Q 4.969482421875 0.4204101562500002 4.969482421875 0.5222167968750002 Q 4.969482421875 0.6342773437500002 4.998779296875 0.7313232421875002 Q 5.028076171875 0.8283691406250002 5.0859375 0.8994140625000002 Q 5.143798828125 0.9704589843750002 5.2305908203125 1.0111083984375002 Q 5.3173828125 1.0517578125000002 5.43310546875 1.0517578125000002 Q 5.474853515625 1.0517578125000002 5.5166015625 1.0429687500000002 Q 5.558349609375 1.0341796875000002 5.5968017578125 1.0169677734375002 Q 5.63525390625 0.9997558593750002 5.6693115234375 0.9752197265625002 Q 5.703369140625 0.9506835937500002 5.731201171875 0.9191894531250002 L 5.7392578125 0.9243164062500002 L 5.6806640625 1.0737304687500002 Q 5.625732421875 1.0949707031250002 5.5594482421875 1.1063232421875002 Q 5.4931640625 1.1176757812500002 5.42578125 1.1176757812500002 Q 5.290283203125 1.1176757812500002 5.1778564453125 1.0784912109375002 Q 5.0654296875 1.0393066406250002 4.9844970703125 0.9675292968750002 Q 4.903564453125 0.8957519531250002 4.8585205078125 0.7950439453125002 Q 4.8134765625 0.6943359375000002 4.8134765625 0.5712890625000002 Q 4.8134765625 0.5017089843750002 4.8314208984375 0.4343261718750002 Q 4.849365234375 0.3669433593750002 4.8837890625 0.3061523437500002 Q 4.918212890625 0.24536132812500022 4.96875 0.19445800781250022 Q 5.019287109375 0.14355468750000022 5.0841064453125 0.10620117187500022 Q 5.14892578125 0.06884765625000022 5.2269287109375 0.04797363281250022 Q 5.304931640625 0.027099609375000222 5.395751953125 0.027099609375000222 Q 5.537109375 0.027099609375000222 5.657958984375 0.07031250000000022 L 5.707763671875 0.20581054687500022 M 5.819091796875 0.7185058593750002 Q 5.819091796875 0.6357421875000002 5.849853515625 0.5650634765625002 Q 5.880615234375 0.4943847656250002 5.9344482421875 0.4423828125000002 Q 5.98828125 0.3903808593750002 6.0615234375 0.3610839843750002 Q 6.134765625 0.3317871093750002 6.218994140625 0.3317871093750002 Q 6.3017578125 0.3317871093750002 6.3746337890625 0.3592529296875002 Q 6.447509765625 0.3867187500000002 6.501708984375 0.4372558593750002 Q 6.555908203125 0.4877929687500002 6.5870361328125 0.5603027343750002 Q 6.6181640625 0.6328125000000002 6.6181640625 0.7229003906250002 Q 6.6181640625 0.7983398437500002 6.591796875 0.8679199218750002 Q 6.5654296875 0.9375000000000002 6.51416015625 0.9909667968750002 Q 6.462890625 1.0444335937500002 6.3885498046875 1.0762939453125002 Q 6.314208984375 1.1081542968750002 6.217529296875 1.1081542968750002 Q 6.135498046875 1.1081542968750002 6.06298828125 1.0810546875000002 Q 5.990478515625 1.0539550781250002 5.936279296875 1.0034179687500002 Q 5.882080078125 0.9528808593750002 5.8505859375 0.8807373046875002 Q 5.819091796875 0.8085937500000002 5.819091796875 0.7185058593750002 M 6.234375 1.0546875000000002 Q 6.286376953125 1.0546875000000002 6.3299560546875 1.0341796875000002 Q 6.37353515625 1.0136718750000002 6.405029296875 0.9748535156250002 Q 6.4365234375 0.9360351562500002 6.4541015625 0.8803710937500002 Q 6.4716796875 0.8247070312500002 6.4716796875 0.7543945312500002 Q 6.4716796875 0.6752929687500002 6.454833984375 0.6075439453125002 Q 6.43798828125 0.5397949218750002 6.4046630859375 0.4903564453125002 Q 6.371337890625 0.4409179687500002 6.32080078125 0.4130859375000002 Q 6.270263671875 0.3852539062500002 6.202880859375 0.3852539062500002 Q 6.15087890625 0.3852539062500002 6.107666015625 0.4053955078125002 Q 6.064453125 0.4255371093750002 6.0325927734375 0.4636230468750002 Q 6.000732421875 0.5017089843750002 5.983154296875 0.5570068359375002 Q 5.965576171875 0.6123046875000002 5.965576171875 0.6826171875000002 Q 5.965576171875 0.7617187500000002 5.9827880859375 0.8298339843750002 Q 6 0.8979492187500002 6.03369140625 0.9481201171875002 Q 6.0673828125 0.9982910156250002 6.1175537109375 1.0264892578125002 Q 6.167724609375 1.0546875000000002 6.234375 1.0546875000000002 M 7.115478515625 0.3317871093750002 Q 7.1455078125 0.3317871093750002 7.175537109375 0.3369140625000002 Q 7.20556640625 0.3420410156250002 7.234130859375 0.3515625000000002 Q 7.2626953125 0.3610839843750002 7.288330078125 0.3750000000000002 Q 7.31396484375 0.3889160156250002 7.33447265625 0.4064941406250002 L 7.33447265625 0.2863769531250002 Q 7.33447265625 0.22412109375000022 7.3330078125 0.17761230468750022 Q 7.33154296875 0.13110351562500022 7.32861328125 0.09741210937500022 Q 7.32568359375 0.06372070312500022 7.322021484375 0.04101562500000022 Q 7.318359375 0.018310546875000222 7.31396484375 0.002929687500000222 L 7.31396484375 2.220446049250313e-16 L 7.483154296875 2.220446049250313e-16 L 7.483154296875 0.002929687500000222 Q 7.478759765625 0.018310546875000222 7.4747314453125 0.04101562500000022 Q 7.470703125 0.06372070312500022 7.4681396484375 0.09741210937500022 Q 7.465576171875 0.13110351562500022 7.4637451171875 0.17761230468750022 Q 7.4619140625 0.22412109375000022 7.4619140625 0.2863769531250002 L 7.4619140625 0.8085937500000002 Q 7.4619140625 0.8708496093750002 7.4637451171875 0.9173583984375002 Q 7.465576171875 0.9638671875000002 7.4681396484375 0.9975585937500002 Q 7.470703125 1.0312500000000002 7.4747314453125 1.0539550781250002 Q 7.478759765625 1.0766601562500002 7.483154296875 1.0920410156250002 L 7.483154296875 1.0949707031250002 L 7.3212890625 1.0949707031250002 L 7.3212890625 1.0920410156250002 Q 7.323486328125 1.0861816406250002 7.324951171875 1.0748291015625002 Q 7.326416015625 1.0634765625000002 7.32861328125 1.0466308593750002 Q 7.291259765625 1.0700683593750002 7.23486328125 1.0891113281250002 Q 7.178466796875 1.1081542968750002 7.103759765625 1.1081542968750002 Q 7.0166015625 1.1081542968750002 6.945556640625 1.0810546875000002 Q 6.87451171875 1.0539550781250002 6.8243408203125 1.0034179687500002 Q 6.774169921875 0.9528808593750002 6.7470703125 0.8807373046875002 Q 6.719970703125 0.8085937500000002 6.719970703125 0.7185058593750002 Q 6.719970703125 0.6357421875000002 6.749267578125 0.5650634765625002 Q 6.778564453125 0.4943847656250002 6.831298828125 0.4423828125000002 Q 6.884033203125 0.3903808593750002 6.95654296875 0.3610839843750002 Q 7.029052734375 0.3317871093750002 7.115478515625 0.3317871093750002 M 7.33447265625 0.5354003906250002 Q 7.30517578125 0.4584960937500002 7.2506103515625 0.4218750000000002 Q 7.196044921875 0.3852539062500002 7.1279296875 0.3852539062500002 Q 7.07080078125 0.3852539062500002 7.0224609375 0.4053955078125002 Q 6.97412109375 0.4255371093750002 6.939697265625 0.4636230468750002 Q 6.9052734375 0.5017089843750002 6.8858642578125 0.5570068359375002 Q 6.866455078125 0.6123046875000002 6.866455078125 0.6826171875000002 Q 6.866455078125 0.7617187500000002 6.884033203125 0.8298339843750002 Q 6.901611328125 0.8979492187500002 6.9356689453125 0.9481201171875002 Q 6.9697265625 0.9982910156250002 7.020263671875 1.0264892578125002 Q 7.07080078125 1.0546875000000002 7.13671875 1.0546875000000002 Q 7.171142578125 1.0546875000000002 7.201171875 1.0466308593750002 Q 7.231201171875 1.0385742187500002 7.256103515625 1.0261230468750002 Q 7.281005859375 1.0136718750000002 7.300048828125 0.9986572265625002 Q 7.319091796875 0.9836425781250002 7.33154296875 0.9689941406250002 Q 7.3330078125 0.9375000000000002 7.333740234375 0.8972167968750002 Q 7.33447265625 0.8569335937500002 7.33447265625 0.8085937500000002 L 7.33447265625 0.5354003906250002 M 8.014892578125 1.1081542968750002 Q 7.93359375 1.1081542968750002 7.862548828125 1.0825195312500002 Q 7.79150390625 1.0568847656250002 7.73876953125 1.0074462890625002 Q 7.68603515625 0.9580078125000002 7.6556396484375 0.8851318359375002 Q 7.625244140625 0.8122558593750002 7.625244140625 0.7185058593750002 Q 7.625244140625 0.6357421875000002 7.653076171875 0.5650634765625002 Q 7.680908203125 0.4943847656250002 7.72998046875 0.4423828125000002 Q 7.779052734375 0.3903808593750002 7.8446044921875 0.3610839843750002 Q 7.91015625 0.3317871093750002 7.986328125 0.3317871093750002 Q 8.061767578125 0.3317871093750002 8.126220703125 0.3577880859375002 Q 8.190673828125 0.3837890625000002 8.2379150390625 0.4332275390625002 Q 8.28515625 0.4826660156250002 8.3126220703125 0.5555419921875002 Q 8.340087890625 0.6284179687500002 8.34228515625 0.7214355468750002 Q 8.259521484375 0.7199707031250002 8.1767578125 0.7192382812500002 Q 8.093994140625 0.7185058593750002 8.004638671875 0.7185058593750002 Q 7.94091796875 0.7185058593750002 7.8804931640625 0.7192382812500002 Q 7.820068359375 0.7199707031250002 7.771728515625 0.7214355468750002 Q 7.776123046875 0.7976074218750002 7.7955322265625 0.8591308593750002 Q 7.81494140625 0.9206542968750002 7.8489990234375 0.9642333984375002 Q 7.883056640625 1.0078125000000002 7.9317626953125 1.0312500000000002 Q 7.98046875 1.0546875000000002 8.0419921875 1.0546875000000002 Q 8.08447265625 1.0546875000000002 8.1221923828125 1.0447998046875002 Q 8.159912109375 1.0349121093750002 8.190673828125 1.0173339843750002 Q 8.221435546875 0.9997558593750002 8.24560546875 0.9759521484375002 Q 8.269775390625 0.9521484375000002 8.28662109375 0.9243164062500002 L 8.29541015625 0.9287109375000002 L 8.2412109375 1.0590820312500002 Q 8.20166015625 1.0795898437500002 8.146728515625 1.0938720703125002 Q 8.091796875 1.1081542968750002 8.014892578125 1.1081542968750002 M 7.91748046875 0.6613769531250002 Q 7.99072265625 0.6613769531250002 8.0643310546875 0.6610107421875002 Q 8.137939453125 0.6606445312500002 8.197998046875 0.6584472656250002 Q 8.19140625 0.5947265625000002 8.173095703125 0.5441894531250002 Q 8.15478515625 0.4936523437500002 8.126220703125 0.4584960937500002 Q 8.09765625 0.4233398437500002 8.058837890625 0.4042968750000002 Q 8.02001953125 0.3852539062500002 7.97314453125 0.3852539062500002 Q 7.9306640625 0.3852539062500002 7.8951416015625 0.4039306640625002 Q 7.859619140625 0.4226074218750002 7.833251953125 0.4577636718750002 Q 7.806884765625 0.4929199218750002 7.790771484375 0.5438232421875002 Q 7.774658203125 0.5947265625000002 7.771728515625 0.6599121093750002 Q 7.8046875 0.6613769531250002 7.84130859375 0.6613769531250002 Q 7.8779296875 0.6613769531250002 7.91748046875 0.6613769531250002 M 8.4990234375 0.6313476562500002 Q 8.4990234375 0.5690917968750002 8.4971923828125 0.5225830078125002 Q 8.495361328125 0.4760742187500002 8.4927978515625 0.4423828125000002 Q 8.490234375 0.4086914062500002 8.4862060546875 0.3859863281250002 Q 8.482177734375 0.3632812500000002 8.477783203125 0.3479003906250002 L 8.477783203125 0.3449707031250002 L 8.64697265625 0.3449707031250002 L 8.64697265625 0.3479003906250002 Q 8.64111328125 0.3647460937500002 8.6370849609375 0.3889160156250002 Q 8.633056640625 0.4130859375000002 8.630859375 0.4511718750000002 Q 8.657958984375 0.4284667968750002 8.687255859375 0.4064941406250002 Q 8.716552734375 0.3845214843750002 8.747314453125 0.3676757812500002 Q 8.778076171875 0.3508300781250002 8.8099365234375 0.3405761718750002 Q 8.841796875 0.3303222656250002 8.8740234375 0.3303222656250002 Q 8.893798828125 0.3303222656250002 8.908447265625 0.3321533203125002 Q 8.923095703125 0.3339843750000002 8.934814453125 0.3372802734375002 Q 8.946533203125 0.3405761718750002 8.9560546875 0.3446044921875002 Q 8.965576171875 0.3486328125000002 8.974365234375 0.3522949218750002 L 8.9384765625 0.4921875000000002 L 8.926025390625 0.4892578125000002 Q 8.917236328125 0.4570312500000002 8.89306640625 0.4376220703125002 Q 8.868896484375 0.4182128906250002 8.8271484375 0.4182128906250002 Q 8.804443359375 0.4182128906250002 8.779541015625 0.4262695312500002 Q 8.754638671875 0.4343261718750002 8.72900390625 0.4486083984375002 Q 8.703369140625 0.4628906250000002 8.677734375 0.4815673828125002 Q 8.652099609375 0.5002441406250002 8.6279296875 0.5207519531250002 Q 8.62646484375 0.5419921875000002 8.62646484375 0.5668945312500002 Q 8.62646484375 0.5917968750000002 8.62646484375 0.6196289062500002 L 8.62646484375 0.8085937500000002 Q 8.62646484375 0.8708496093750002 8.6279296875 0.9173583984375002 Q 8.62939453125 0.9638671875000002 8.63232421875 0.9975585937500002 Q 8.63525390625 1.0312500000000002 8.638916015625 1.0539550781250002 Q 8.642578125 1.0766601562500002 8.64697265625 1.0920410156250002 L 8.64697265625 1.0949707031250002 L 8.477783203125 1.0949707031250002 L 8.477783203125 1.0920410156250002 Q 8.482177734375 1.0766601562500002 8.4862060546875 1.0539550781250002 Q 8.490234375 1.0312500000000002 8.4927978515625 0.9975585937500002 Q 8.495361328125 0.9638671875000002 8.4971923828125 0.9173583984375002 Q 8.4990234375 0.8708496093750002 8.4990234375 0.8085937500000002 L 8.4990234375 0.6313476562500002 M 9.41748046875 0.4921875000000002 L 9.4072265625 0.4936523437500002 Q 9.402099609375 0.4768066406250002 9.3907470703125 0.4577636718750002 Q 9.37939453125 0.4387207031250002 9.3614501953125 0.4226074218750002 Q 9.343505859375 0.4064941406250002 9.3182373046875 0.3958740234375002 Q 9.29296875 0.3852539062500002 9.260009765625 0.3852539062500002 Q 9.2373046875 0.3852539062500002 9.2171630859375 0.3918457031250002 Q 9.197021484375 0.3984375000000002 9.1820068359375 0.4112548828125002 Q 9.1669921875 0.4240722656250002 9.158203125 0.4431152343750002 Q 9.1494140625 0.4621582031250002 9.1494140625 0.4877929687500002 Q 9.1494140625 0.5236816406250002 9.1717529296875 0.5562744140625002 Q 9.194091796875 0.5888671875000002 9.227783203125 0.6207275390625002 Q 9.261474609375 0.6525878906250002 9.3006591796875 0.6848144531250002 Q 9.33984375 0.7170410156250002 9.37353515625 0.7521972656250002 Q 9.4072265625 0.7873535156250002 9.4295654296875 0.8272705078125002 Q 9.451904296875 0.8671875000000002 9.451904296875 0.9133300781250002 Q 9.451904296875 0.9506835937500002 9.438720703125 0.9862060546875002 Q 9.425537109375 1.0217285156250002 9.3980712890625 1.0495605468750002 Q 9.37060546875 1.0773925781250002 9.3277587890625 1.0946044921875002 Q 9.284912109375 1.1118164062500002 9.2255859375 1.1118164062500002 Q 9.1904296875 1.1118164062500002 9.1600341796875 1.1052246093750002 Q 9.129638671875 1.0986328125000002 9.1043701171875 1.0887451171875002 Q 9.0791015625 1.0788574218750002 9.0589599609375 1.0667724609375002 Q 9.038818359375 1.0546875000000002 9.0234375 1.0437011718750002 L 9.03076171875 0.9045410156250002 L 9.04248046875 0.9045410156250002 Q 9.0498046875 0.9389648437500002 9.064453125 0.9675292968750002 Q 9.0791015625 0.9960937500000002 9.1007080078125 1.0162353515625002 Q 9.122314453125 1.0363769531250002 9.150146484375 1.0477294921875002 Q 9.177978515625 1.0590820312500002 9.2109375 1.0590820312500002 Q 9.26513671875 1.0590820312500002 9.2969970703125 1.0290527343750002 Q 9.328857421875 0.9990234375000002 9.328857421875 0.9506835937500002 Q 9.328857421875 0.9118652343750002 9.3072509765625 0.8792724609375002 Q 9.28564453125 0.8466796875000002 9.252685546875 0.8166503906250002 Q 9.2197265625 0.7866210937500002 9.1820068359375 0.7565917968750002 Q 9.144287109375 0.7265625000000002 9.111328125 0.6925048828125002 Q 9.078369140625 0.6584472656250002 9.0567626953125 0.6177978515625002 Q 9.03515625 0.5771484375000002 9.03515625 0.5251464843750002 Q 9.03515625 0.4826660156250002 9.0509033203125 0.4471435546875002 Q 9.066650390625 0.4116210937500002 9.0948486328125 0.3863525390625002 Q 9.123046875 0.3610839843750002 9.161865234375 0.3471679687500002 Q 9.20068359375 0.3332519531250002 9.246826171875 0.3332519531250002 Q 9.3076171875 0.3332519531250002 9.3482666015625 0.3460693359375002 Q 9.388916015625 0.3588867187500002 9.41015625 0.3706054687500002 L 9.41748046875 0.4921875000000002 M 10.98193359375 0.9719238281250002 Q 10.98193359375 0.9799804687500002 10.9801025390625 0.9887695312500002 Q 10.978271484375 0.9975585937500002 10.9716796875 1.0034179687500002 Q 10.938720703125 1.0283203125000002 10.9002685546875 1.0491943359375002 Q 10.86181640625 1.0700683593750002 10.817138671875 1.0854492187500002 Q 10.7724609375 1.1008300781250002 10.7208251953125 1.1092529296875002 Q 10.669189453125 1.1176757812500002 10.60986328125 1.1176757812500002 Q 10.4765625 1.1176757812500002 10.36669921875 1.0784912109375002 Q 10.2568359375 1.0393066406250002 10.1781005859375 0.9675292968750002 Q 10.099365234375 0.8957519531250002 10.05615234375 0.7950439453125002 Q 10.012939453125 0.6943359375000002 10.012939453125 0.5712890625000002 Q 10.012939453125 0.5017089843750002 10.0308837890625 0.4343261718750002 Q 10.048828125 0.3669433593750002 10.083251953125 0.3061523437500002 Q 10.11767578125 0.24536132812500022 10.168212890625 0.19445800781250022 Q 10.21875 0.14355468750000022 10.2835693359375 0.10620117187500022 Q 10.348388671875 0.06884765625000022 10.4263916015625 0.04797363281250022 Q 10.50439453125 0.027099609375000222 10.59521484375 0.027099609375000222 Q 10.63037109375 0.027099609375000222 10.6669921875 0.030395507812500222 Q 10.70361328125 0.03369140625000022 10.739501953125 0.03991699218750022 Q 10.775390625 0.04614257812500022 10.8087158203125 0.05493164062500022 Q 10.842041015625 0.06372070312500022 10.8720703125 0.07470703125000022 L 10.921875 0.21020507812500022 L 10.916015625 0.21313476562500022 Q 10.887451171875 0.18750000000000022 10.85009765625 0.16552734375000022 Q 10.812744140625 0.14355468750000022 10.770263671875 0.12744140625000022 Q 10.727783203125 0.11132812500000022 10.6812744140625 0.10217285156250022 Q 10.634765625 0.09301757812500022 10.587158203125 0.09301757812500022 Q 10.494873046875 0.09301757812500022 10.41796875 0.12194824218750022 Q 10.341064453125 0.15087890625000022 10.2857666015625 0.20581054687500022 Q 10.23046875 0.2607421875000002 10.19970703125 0.3405761718750002 Q 10.1689453125 0.4204101562500002 10.1689453125 0.5222167968750002 Q 10.1689453125 0.6342773437500002 10.1982421875 0.7302246093750002 Q 10.2275390625 0.8261718750000002 10.285400390625 0.8964843750000002 Q 10.34326171875 0.9667968750000002 10.4300537109375 1.0067138671875002 Q 10.516845703125 1.0466308593750002 10.632568359375 1.0466308593750002 Q 10.683837890625 1.0466308593750002 10.72412109375 1.0385742187500002 Q 10.764404296875 1.0305175781250002 10.792236328125 1.0184326171875002 Q 10.820068359375 1.0063476562500002 10.8343505859375 0.9920654296875002 Q 10.8486328125 0.9777832031250002 10.8486328125 0.9660644531250002 L 10.8486328125 0.9375000000000002 Q 10.8486328125 0.8862304687500002 10.84716796875 0.8488769531250002 Q 10.845703125 0.8115234375000002 10.8427734375 0.7840576171875002 Q 10.83984375 0.7565917968750002 10.836181640625 0.7368164062500002 Q 10.83251953125 0.7170410156250002 10.827392578125 0.7001953125000002 L 10.827392578125 0.6972656250000002 L 11.003173828125 0.6972656250000002 L 11.003173828125 0.7001953125000002 Q 10.998779296875 0.7155761718750002 10.9947509765625 0.7364501953125002 Q 10.99072265625 0.7573242187500002 10.98779296875 0.7858886718750002 Q 10.98486328125 0.8144531250000002 10.9833984375 0.8529052734375002 Q 10.98193359375 0.8913574218750002 10.98193359375 0.9418945312500002 L 10.98193359375 0.9719238281250002 M 11.50634765625 1.1081542968750002 Q 11.425048828125 1.1081542968750002 11.35400390625 1.0825195312500002 Q 11.282958984375 1.0568847656250002 11.230224609375 1.0074462890625002 Q 11.177490234375 0.9580078125000002 11.1470947265625 0.8851318359375002 Q 11.11669921875 0.8122558593750002 11.11669921875 0.7185058593750002 Q 11.11669921875 0.6357421875000002 11.14453125 0.5650634765625002 Q 11.17236328125 0.4943847656250002 11.221435546875 0.4423828125000002 Q 11.2705078125 0.3903808593750002 11.3360595703125 0.3610839843750002 Q 11.401611328125 0.3317871093750002 11.477783203125 0.3317871093750002 Q 11.55322265625 0.3317871093750002 11.61767578125 0.3577880859375002 Q 11.68212890625 0.3837890625000002 11.7293701171875 0.4332275390625002 Q 11.776611328125 0.4826660156250002 11.8040771484375 0.5555419921875002 Q 11.83154296875 0.6284179687500002 11.833740234375 0.7214355468750002 Q 11.7509765625 0.7199707031250002 11.668212890625 0.7192382812500002 Q 11.58544921875 0.7185058593750002 11.49609375 0.7185058593750002 Q 11.432373046875 0.7185058593750002 11.3719482421875 0.7192382812500002 Q 11.3115234375 0.7199707031250002 11.26318359375 0.7214355468750002 Q 11.267578125 0.7976074218750002 11.2869873046875 0.8591308593750002 Q 11.306396484375 0.9206542968750002 11.3404541015625 0.9642333984375002 Q 11.37451171875 1.0078125000000002 11.4232177734375 1.0312500000000002 Q 11.471923828125 1.0546875000000002 11.533447265625 1.0546875000000002 Q 11.575927734375 1.0546875000000002 11.6136474609375 1.0447998046875002 Q 11.6513671875 1.0349121093750002 11.68212890625 1.0173339843750002 Q 11.712890625 0.9997558593750002 11.737060546875 0.9759521484375002 Q 11.76123046875 0.9521484375000002 11.778076171875 0.9243164062500002 L 11.786865234375 0.9287109375000002 L 11.732666015625 1.0590820312500002 Q 11.693115234375 1.0795898437500002 11.63818359375 1.0938720703125002 Q 11.583251953125 1.1081542968750002 11.50634765625 1.1081542968750002 M 11.408935546875 0.6613769531250002 Q 11.482177734375 0.6613769531250002 11.5557861328125 0.6610107421875002 Q 11.62939453125 0.6606445312500002 11.689453125 0.6584472656250002 Q 11.682861328125 0.5947265625000002 11.66455078125 0.5441894531250002 Q 11.646240234375 0.4936523437500002 11.61767578125 0.4584960937500002 Q 11.589111328125 0.4233398437500002 11.55029296875 0.4042968750000002 Q 11.511474609375 0.3852539062500002 11.464599609375 0.3852539062500002 Q 11.422119140625 0.3852539062500002 11.3865966796875 0.4039306640625002 Q 11.35107421875 0.4226074218750002 11.32470703125 0.4577636718750002 Q 11.29833984375 0.4929199218750002 11.2822265625 0.5438232421875002 Q 11.26611328125 0.5947265625000002 11.26318359375 0.6599121093750002 Q 11.296142578125 0.6613769531250002 11.332763671875 0.6613769531250002 Q 11.369384765625 0.6613769531250002 11.408935546875 0.6613769531250002 M 12.494384765625 0.6013183593750002 Q 12.494384765625 0.5046386718750002 12.45556640625 0.4592285156250002 Q 12.416748046875 0.4138183593750002 12.3515625 0.4138183593750002 Q 12.328125 0.4138183593750002 12.298828125 0.4237060546875002 Q 12.26953125 0.4335937500000002 12.23876953125 0.4500732421875002 Q 12.2080078125 0.4665527343750002 12.17724609375 0.4885253906250002 Q 12.146484375 0.5104980468750002 12.119384765625 0.5354003906250002 L 12.117919921875 0.6313476562500002 L 12.117919921875 0.8085937500000002 Q 12.117919921875 0.8708496093750002 12.119384765625 0.9173583984375002 Q 12.120849609375 0.9638671875000002 12.123779296875 0.9975585937500002 Q 12.126708984375 1.0312500000000002 12.13037109375 1.0539550781250002 Q 12.134033203125 1.0766601562500002 12.138427734375 1.0920410156250002 L 12.138427734375 1.0949707031250002 L 11.96923828125 1.0949707031250002 L 11.96923828125 1.0920410156250002 Q 11.9736328125 1.0766601562500002 11.9776611328125 1.0539550781250002 Q 11.981689453125 1.0312500000000002 11.9842529296875 0.9975585937500002 Q 11.98681640625 0.9638671875000002 11.9886474609375 0.9173583984375002 Q 11.990478515625 0.8708496093750002 11.990478515625 0.8085937500000002 L 11.990478515625 0.6313476562500002 Q 11.990478515625 0.5690917968750002 11.9886474609375 0.5225830078125002 Q 11.98681640625 0.4760742187500002 11.9842529296875 0.4423828125000002 Q 11.981689453125 0.4086914062500002 11.9776611328125 0.3859863281250002 Q 11.9736328125 0.3632812500000002 11.96923828125 0.3479003906250002 L 11.96923828125 0.3449707031250002 L 12.138427734375 0.3449707031250002 L 12.138427734375 0.3479003906250002 Q 12.132568359375 0.3662109375000002 12.1292724609375 0.3944091796875002 Q 12.1259765625 0.4226074218750002 12.122314453125 0.4680175781250002 Q 12.15234375 0.4431152343750002 12.1871337890625 0.4182128906250002 Q 12.221923828125 0.3933105468750002 12.25927734375 0.3739013671875002 Q 12.296630859375 0.3544921875000002 12.33544921875 0.3424072265625002 Q 12.374267578125 0.3303222656250002 12.41162109375 0.3303222656250002 Q 12.46875 0.3303222656250002 12.5086669921875 0.3500976562500002 Q 12.548583984375 0.3698730468750002 12.5738525390625 0.4020996093750002 Q 12.59912109375 0.4343261718750002 12.6104736328125 0.4757080078125002 Q 12.621826171875 0.5170898437500002 12.621826171875 0.5595703125000002 L 12.621826171875 0.8085937500000002 Q 12.621826171875 0.8708496093750002 12.623291015625 0.9173583984375002 Q 12.624755859375 0.9638671875000002 12.627685546875 0.9975585937500002 Q 12.630615234375 1.0312500000000002 12.63427734375 1.0539550781250002 Q 12.637939453125 1.0766601562500002 12.642333984375 1.0920410156250002 L 12.642333984375 1.0949707031250002 L 12.47314453125 1.0949707031250002 L 12.47314453125 1.0920410156250002 Q 12.4775390625 1.0766601562500002 12.4815673828125 1.0539550781250002 Q 12.485595703125 1.0312500000000002 12.4881591796875 0.9975585937500002 Q 12.49072265625 0.9638671875000002 12.4925537109375 0.9173583984375002 Q 12.494384765625 0.8708496093750002 12.494384765625 0.8085937500000002 L 12.494384765625 0.6013183593750002 M 12.9462890625 1.0305175781250002 L 13.259765625 1.0305175781250002 Q 13.345458984375 1.0305175781250002 13.4183349609375 1.0231933593750002 Q 13.4912109375 1.0158691406250002 13.54541015625 1.0063476562500002 Q 13.6083984375 0.9960937500000002 13.660400390625 0.9821777343750002 L 13.62451171875 1.1008300781250002 Q 13.61572265625 1.1000976562500002 13.59814453125 1.0993652343750002 Q 13.58056640625 1.0986328125000002 13.5589599609375 1.0979003906250002 Q 13.537353515625 1.0971679687500002 13.5135498046875 1.0968017578125002 Q 13.48974609375 1.0964355468750002 13.468505859375 1.0960693359375002 Q 13.447265625 1.0957031250000002 13.4307861328125 1.0953369140625002 Q 13.414306640625 1.0949707031250002 13.406982421875 1.0949707031250002 L 12.74560546875 1.0949707031250002 L 12.74560546875 1.0766601562500002 L 13.458984375 0.10913085937500022 L 13.18359375 0.10913085937500022 Q 13.09716796875 0.10913085937500022 13.0242919921875 0.11682128906250022 Q 12.951416015625 0.12451171875000022 12.897216796875 0.13330078125000022 Q 12.834228515625 0.14428710937500022 12.782958984375 0.15747070312500022 L 12.83349609375 0.03881835937500022 Q 12.84228515625 0.03955078125000022 12.8602294921875 0.04028320312500022 Q 12.878173828125 0.04101562500000022 12.8997802734375 0.04174804687500022 Q 12.92138671875 0.04248046875000022 12.94482421875 0.04284667968750022 Q 12.96826171875 0.04321289062500022 12.989501953125 0.04357910156250022 Q 13.0107421875 0.04394531250000022 13.0272216796875 0.04431152343750022 Q 13.043701171875 0.04467773437500022 13.051025390625 0.04467773437500022 L 13.660400390625 0.04467773437500022 L 13.660400390625 0.06445312500000022 L 12.9462890625 1.0305175781250002" fill="#369c9a" fill-rule="nonzero"></path></g><g><path d=" M 6.249388885498047 1.8488515625000002 L 6.249388885498047 2.2863515625 L 6.531888885498047 2.2863515625 L 6.531888885498047 2.2519765625000003 L 6.306263885498047 2.2519765625000003 L 6.306263885498047 2.0688515625000004 L 6.5000138854980465 2.0688515625000004 L 6.5000138854980465 2.0401015625000003 L 6.306263885498047 2.0401015625000003 L 6.306263885498047 1.8832265625000002 L 6.531888885498047 1.8832265625000002 L 6.531888885498047 1.8488515625000002 L 6.249388885498047 1.8488515625000002 M 6.978132476806641 1.8488515625000002 L 6.978132476806641 2.1832265625000002 L 6.9756324768066404 2.1832265625000002 L 6.628757476806641 1.8413515625 L 6.625632476806641 1.8413515625 L 6.625632476806641 2.2863515625 L 6.65438247680664 2.2863515625 L 6.65438247680664 1.9519765625 L 6.656882476806641 1.9519765625 L 7.003757476806641 2.2938515625 L 7.0068824768066404 2.2938515625 L 7.0068824768066404 1.8488515625000002 L 6.978132476806641 1.8488515625000002 M 7.100617218017578 1.8488515625000002 L 7.283742218017578 2.2863515625 L 7.321242218017578 2.2863515625 L 7.498742218017578 1.8488515625000002 L 7.4662422180175785 1.8488515625000002 L 7.320617218017578 2.2088515625 L 7.318117218017578 2.2088515625 L 7.168117218017578 1.8488515625000002 L 7.100617218017578 1.8488515625000002" fill="#3fb5b4" fill-rule="nonzero"></path></g><g clip-path="url(#SvgjsClipPath1001)"><g clip-path="url(#a0512ba27-7b59-4b8d-b625-1f4afb9db50ba59799a0-8caa-4c97-ac54-e66226ffa3cb)"><path d=" M 6.171164193793855 -11.992166904980856 C 5.952710354386038 -11.957236468730366 5.73314761224011 -11.927296094801376 5.515802675570404 -11.885712242122224 C 4.919767453835877 -11.772604162834927 4.364207182042393 -11.535853428248283 3.813636972570407 -11.292449277232974 C 3.540846898995164 -11.172133330147958 3.2835814637534706 -11.013005787229066 3.0313060908332754 -10.852214890203008 C 2.755743760412755 -10.677008257581509 2.464102340289629 -10.517880714662617 2.2545197227866973 -10.25396186299226 C 2.1990745858811604 -10.184655441860338 2.144738351713734 -10.114240117990306 2.089293214808196 -10.044379245489328 C 2.0377292374860465 -9.914637625130371 1.9872741629020074 -9.784896004771413 1.934601282841747 -9.655154384412457 C 1.6839892640287184 -9.037495559284771 1.5353962971218782 -8.398213130763926 1.5464853245029864 -7.728435876945034 C 1.550366484086374 -7.502219718370442 1.5697722820033122 -7.27600355979585 1.588623628551195 -7.0503418525903125 C 1.6418509599805107 -6.407178264486079 1.7643847125417484 -5.775658155132009 1.9806207464733436 -5.167425003278264 C 2.1098079154632456 -4.803704905177939 2.284460096715688 -4.455509445411164 2.4180828766580333 -4.092343798679894 C 2.5949528633866974 -3.612188913077942 2.8594261664261102 -3.1996770945007444 3.2758191445866953 -2.8963921956274543 C 3.561916051019268 -2.68847293223169 3.8568841793567272 -2.493306050324197 4.147416696741743 -2.2925946547261535 C 4.166822494658681 -2.359128819012799 4.189555000789951 -2.4245540805613324 4.205079639123501 -2.491642696217033 C 4.25553471370754 -2.7073242787795735 4.356999314244673 -2.7965909491974887 4.577116507759657 -2.813778941638205 C 4.5521661961521644 -2.885857619615404 4.53109704412806 -2.950173978425827 4.645868477522523 -2.9651441653903223 C 4.676917754189624 -2.9695797763427656 4.7057492253805036 -3.015044788605305 4.730699536987995 -3.044985162534294 C 4.758976556809819 -3.0799155987847833 4.773946743774314 -3.1375785411665422 4.808877180024803 -3.153103179500093 C 4.9297475784788745 -3.2057760595603533 4.928638675740763 -3.303913951883155 4.929193127109819 -3.4098141633727295 C 4.9297475784788745 -3.4713582653378783 4.954697890086366 -3.531793464564913 4.9569156955625875 -3.5927831151610032 C 4.958579049669754 -3.646564897959374 4.944717765443369 -3.701455583495857 4.937509897645649 -3.755237366294228 C 4.9330742866932065 -3.785732191592272 4.926975321633597 -3.816227016890318 4.921985259312099 -3.846721842188364 C 4.956361244193532 -3.8483851962955296 4.994063937289297 -3.860028675045692 5.0251132139563985 -3.8494940990336417 C 5.05727139336161 -3.838959523021588 5.096637440564542 -3.813454760045042 5.10883537068376 -3.7840688374851066 C 5.167052764434574 -3.6454559952212637 5.226379060923499 -3.506288701588364 5.268517364971707 -3.362131345633969 C 5.317863536817636 -3.1930236780720787 5.34614055663946 -3.1614199500359224 5.5174660296775695 -3.18692471301247 C 5.609504956940762 -3.200785997238855 5.6671678993225205 -3.1641922068812 5.689900405453791 -3.0849056611062817 C 5.74146438277594 -2.905263417532341 5.871206003134898 -2.782729664971102 5.9931853043270795 -2.6557603014574216 C 6.223282622485059 -2.415128407287389 6.226054879330337 -2.4173462127636114 6.020907872779849 -2.1534273610932537 C 5.9643538331362 -2.0807942317469994 5.964908284505255 -2.017586775674687 6.050293795339784 -1.9687950551978144 C 6.125144730162259 -1.9255478484114992 6.196668956770402 -1.8640037464463504 6.277618856652487 -1.845706851267522 C 6.484429217310141 -1.7991329362668704 6.615834191776264 -1.6677279618007468 6.722843306003952 -1.4997291969769702 C 6.763318255944994 -1.4925213291792492 6.803793205886036 -1.4775511422147556 6.844268155827079 -1.478105593583809 C 7.201889288867794 -1.4825412045362523 7.559510421908509 -1.4880857182268077 7.917131554949226 -1.4975113915007476 C 7.972576691854762 -1.4991747456079132 8.0280218287603 -1.523570605846352 8.083466965665838 -1.5374318900727335 C 8.045209821201016 -1.7187374877538417 8.03633859929613 -1.8967163772206153 8.13835765120232 -2.0647151420443954 C 8.204337364119908 -2.1733876103792475 8.25922804965639 -2.2892679465118224 8.326871116681147 -2.3973859634776193 C 8.423900106265837 -2.550414541336904 8.528691415017303 -2.695680800029411 8.554196177993848 -2.885303168246347 C 8.569166364958345 -2.9950845393193113 8.554196177993848 -3.048866322117684 8.438315841861277 -3.0837967583681714 C 8.245366765430006 -3.1420141521189855 8.050199883522515 -3.204667156822243 7.87222099405574 -3.296706084085434 C 7.571153900658673 -3.4508435646828293 7.374323664644016 -3.6887032020075843 7.3865215947632334 -4.051314397369798 C 7.397610622144341 -4.3728961914219155 7.41091745500167 -4.694477985474032 7.420343128275612 -5.015505328157093 C 7.424778739228055 -5.17296951696882 7.354363415358022 -5.271107409291621 7.201334837498739 -5.31657242155416 C 7.134800673212094 -5.335978219471099 7.063276446603951 -5.337087122209209 6.993970025472029 -5.345958344114096 C 6.781615151123821 -5.372572009828754 6.685140612908186 -5.293285464053835 6.677932745110467 -5.078712784229406 C 6.673497134158024 -4.941208844703675 6.628586573264538 -4.8214473489877125 6.508825077548577 -4.7532498305939015 C 5.979324020100696 -4.450519383089668 5.568475555630664 -4.479905305649603 5.1609537993749655 -4.939545490596507 C 5.057825844730665 -4.9644958022039996 4.954697890086366 -5.0121786199427625 4.852124386811122 -5.009960814466541 C 4.526106981806564 -5.002198495299766 4.200089576802003 -4.976139280954162 3.874072171797444 -4.958396837144392 C 3.850785214297118 -4.956733483037224 3.8219537431062385 -4.9572879344062795 3.803102396558356 -4.968931413156444 C 3.699419990545001 -5.034911126074032 3.583539654412428 -5.090910714348626 3.4987085949469554 -5.176296225183153 C 3.377283745123829 -5.298275526375336 3.2797003041700825 -5.443541785067843 3.1704733844661748 -5.577164565010188 C 2.923742525236533 -5.8776772070382 2.876614158866827 -6.239733951031359 2.850554944521224 -6.607889660084127 C 2.8461193335687818 -6.6705426647873844 2.8599806177951663 -6.734859023597807 2.9459205799987487 -6.739849085919306 C 2.958672961487022 -6.907847850743084 2.950910642320247 -7.080282226519306 2.9891677867850674 -7.24273647765253 C 3.060692013393211 -7.550456987478261 3.28136365827725 -7.758376250874027 3.5158965873876724 -7.954652035519629 C 3.751070548400733 -8.155640254235642 4.076120838929572 -8.214721056227528 4.366979438887671 -8.109343967486078 C 4.710739287702003 -7.993463631353505 5.048400171456724 -7.927483918435915 5.407130207235551 -7.932473980757414 C 5.713741814323172 -7.936909591709857 5.7519989587879925 -7.987364666293896 5.633900817179199 -8.272907121357413 C 5.623366241167147 -8.298966335703016 5.605069345988319 -8.321698841834287 5.587881353547603 -8.344985799334612 C 5.474218822891251 -8.501895536777283 5.478099982474639 -8.647716246838845 5.605069345988319 -8.79353695690041 C 5.6399997822388075 -8.83401190684145 5.694336016406234 -8.858962218448942 5.7215041334899475 -8.902763876604318 C 5.752553410157049 -8.952664499819301 5.776394819026429 -9.014208601784446 5.779167075871706 -9.072425995535262 C 5.77637804258539 -9.126283807442064 5.75997209869369 -9.178553907748176 5.731484258132944 -9.224345670656435 C 5.554059820035225 -9.558679846196824 5.549069757713727 -9.932380068940146 5.491961266701023 -10.292773458826138 C 5.462020892772033 -10.479069118828743 5.774177013550208 -11.009124627645681 5.953264805755094 -11.077876597408547 C 6.069145141887667 -11.122232706932976 6.053620503554116 -11.17712339246946 6.024234580994181 -11.263617806042097 C 5.957145965338481 -11.458230236580533 5.944948035219263 -11.65173376438086 6.0647095309352235 -11.83359381343102 C 6.098531064447601 -11.885157790753171 6.1362337575433665 -11.933949511230043 6.172273096531966 -11.983850134445028 Z M 4.037080874299723 -9.013099699046334 L 4.02543739554956 -8.959317916247963 C 3.882943393702329 -9.016980858629722 3.7055189556046098 -9.039713364760992 3.607935514650864 -9.14062351392907 C 3.4798572483990724 -9.271474037026138 3.4715404778632424 -9.472739883993238 3.482075053875294 -9.665134509055452 C 3.4953818867326225 -9.915746527868482 4.0903082057290385 -10.306080291683465 4.2976730177557485 -10.28390223692125 C 4.350900349185064 -10.27780327186164 4.425196832638484 -10.240100578765874 4.445711533293533 -10.1962989206105 C 4.5183446626397865 -10.041606988644052 4.578225410497767 -9.879707188879882 4.629789387819917 -9.716144035008547 C 4.672482143237181 -9.580857900959035 4.692996843892229 -9.438363899111804 4.730699536987995 -9.300859959586074 C 4.774501195143369 -9.141177965298125 4.695769100737506 -9.016426407260667 4.529988141389949 -9.010327442201056 C 4.365870536149559 -9.004782928510505 4.201198479540112 -9.011990796308224 4.037080874299722 -9.013099699046334 M 5.31841798818669 -8.504667793622556 C 5.321744696401022 -8.35441147260855 5.2280424150306635 -8.272352669988356 5.108280919314703 -8.295085176119626 C 5.0108881356517605 -8.311779998405996 4.915153290632128 -8.337012438178613 4.822184012882129 -8.370490562311158 C 4.7623032650241495 -8.393777519811483 4.669155435022848 -8.444787045764576 4.669155435022848 -8.482489738860341 C 4.669709886391903 -8.54625164630171 4.720164960975942 -8.624983740707572 4.772837841036202 -8.668785398862948 C 4.895926044966496 -8.77024999940008 5.042855657766169 -8.845655385591613 5.080558350861935 -9.020862018213109 C 5.0888751213977645 -9.060228065416041 5.092756280981153 -9.10957423726197 5.1182610439577 -9.135633451607571 C 5.1603993480059085 -9.17888065839389 5.218062290387667 -9.20660322684666 5.269626267709817 -9.240979211728092 C 5.287923162888644 -9.191633039882165 5.3300614669368525 -9.137296805714739 5.321190245031966 -9.093495147559363 C 5.277943038245647 -8.885021432794543 5.196993138363562 -8.679874426244055 5.31841798818669 -8.504667793622556 M 3.075662200357705 -8.37714397873982 C 2.9242969766055884 -8.377698430108877 2.8150700569016798 -8.479717482015065 2.8183967651160113 -8.617775872909853 C 2.8217234733303442 -8.748071944637866 2.9714253429752944 -8.846764288329723 3.1638199680375094 -8.846209836960666 C 3.3035417130394626 -8.845655385591611 3.390036126612102 -8.771358902138191 3.3872638697668247 -8.65381521189845 C 3.384491612921548 -8.512984564158387 3.2309085836932097 -8.376589527370765 3.075662200357705 -8.37714397873982" fill="#3fb5b4" transform="matrix(1,0,0,1,0,0)" fill-rule="nonzero"></path></g><g clip-path="url(#a0512ba27-7b59-4b8d-b625-1f4afb9db50ba59799a0-8caa-4c97-ac54-e66226ffa3cb)"><path d=" M 12.42482118536941 -7.893662384923535 C 12.305059689653449 -8.220234241297149 12.200268380901983 -8.55345951409943 12.061101087269083 -8.871714599937214 C 11.946884105243678 -9.13341564613135 11.804944554765502 -9.385691019051544 11.652470428275276 -9.627986267328744 C 11.516446824624525 -9.842834680265117 11.363880071084848 -10.046751361788376 11.196156951542708 -10.237882773289645 C 10.79813551932203 -10.697818205275599 10.304183452072559 -11.064970316564477 9.749038878308175 -11.31351842925708 C 9.314349004968767 -11.505913054319292 8.869679006986356 -11.676684075988346 8.420573398051504 -11.832484910692907 C 8.234277738048899 -11.89680126950333 8.025249571915023 -11.89569236676522 7.826755981793199 -11.924523837956098 L 7.7236280271489 -11.93284060849193 L 7.134800673212093 -11.97109775295675 C 7.170285560831637 -11.891811207181831 7.212423864879846 -11.81529691825219 7.239591981963558 -11.73379256700105 C 7.313334014047923 -11.515338727593234 7.479669424764535 -11.43549773044926 7.690915396374632 -11.408329613365545 C 7.846161779710136 -11.388369364079553 8.002517065783753 -11.367300212055449 8.152773386797758 -11.326270810745351 C 8.332970081740754 -11.276924638899423 8.47490963221893 -11.171024427409847 8.571938621803621 -11.001916759847958 C 8.634037175137824 -10.89379874288216 8.716650429127073 -10.796215301928413 8.800372585854435 -10.703067471927111 C 8.92900530347528 -10.55946456734177 9.085915040917952 -10.436930814780533 9.19403305788375 -10.280021077337862 C 9.281636374194498 -10.153051713824182 9.38088316925541 -10.092616514597145 9.523931622471697 -10.078200779001707 C 9.659772207890263 -10.064339494775322 9.786741571403944 -10.037725829060664 9.906503067119905 -9.95566702644047 C 10.200362292719252 -9.754401179473367 10.402182591055409 -9.500462452446008 10.494775969687655 -9.147276930357734 C 10.548557752486026 -8.939912118331025 10.552993363438471 -8.757497617911806 10.47038010944922 -8.560112930528094 C 10.365877953933511 -8.309839769865977 10.359150243069404 -8.029452525911871 10.451528762901336 -7.77445534057663 C 10.543013238795472 -7.507764232060995 10.47869687998505 -7.299290517296175 10.249708464565181 -7.1351729120557845 C 10.202580098195472 -7.101351378543406 10.160441794147266 -7.061985331340474 10.11553123325378 -7.02539154098282 C 10.117194587360947 -7.022619284137543 10.119966844206223 -7.019292575923211 10.119966844206223 -7.016520319077934 C 10.118857941468113 -7.010421354018326 10.11664013599189 -7.004876840327771 10.114976781884724 -6.9987778752681615 L 10.11553123325378 -6.999886778006274 C 10.086699762062901 -6.9510950575294 10.067848415515018 -6.89121430967142 10.02792791694303 -6.855174970682821 C 9.917592094501012 -6.757037078360019 9.792286085094497 -6.674978275739824 9.684722519497756 -6.5746225779408025 C 9.56551547515085 -6.463732304129727 9.429120438363228 -6.354505384425818 9.442427271220557 -6.166546370316047 C 9.445753979434889 -6.118863552577285 9.475139901994824 -6.051774936921585 9.511733692352479 -6.034586944480869 C 9.546109677233911 -6.017953403409207 9.612089390151501 -6.045675971861976 9.653673242830653 -6.0711807348385225 C 9.705237220152805 -6.103338914243734 9.74293991324857 -6.15656624567305 9.792286085094497 -6.193160036030705 C 9.86658256854792 -6.248605172936242 9.941987954739448 -6.23807059692419 10.002423153966484 -6.170427529899435 C 10.152125023611434 -6.003537667813767 10.085036407955734 -5.724648629178915 9.885988366464856 -5.6331641532847785 C 9.703019414676582 -5.548887545188362 9.496763505387984 -5.4901157000684915 9.45628855544694 -5.236731424410186 C 9.439100563006225 -5.13083121292061 9.325438032349872 -5.104217547205952 9.227300140027072 -5.105880901313118 C 9.129716699073327 -5.107544255420284 9.07870717312023 -5.178514030659372 9.06817259710818 -5.266671798339177 C 9.058279567624053 -5.367815506431544 9.055315577757087 -5.469517408741838 9.059301375203294 -5.571065599950576 C 9.06096472931046 -5.654233305308884 9.07648936764401 -5.727420886024191 8.958945677404271 -5.760687968167515 C 8.902391637760623 -5.776212606501065 8.846946500855086 -5.853835798168817 8.823659543354761 -5.915379900133963 C 8.75657092769906 -6.091695435493572 8.851936563176585 -6.2075757716261455 8.986113794487984 -6.313475983115722 C 9.097004068299059 -6.401079299426471 9.192924155145638 -6.508088413654158 9.295497658420883 -6.606780757346015 C 9.036568869072024 -6.516959635559044 8.848609854962252 -6.341198551568491 8.693917922995803 -6.120526906684451 C 8.466038410314045 -5.795618404418003 8.457167188409159 -5.491779054175658 8.671185416864532 -5.1607715868496005 C 8.709442561329354 -5.101999741729731 8.745481900317952 -5.04101009113364 8.772095566032611 -4.976693732323216 C 8.856926625498083 -4.77376453124895 9.026034293059972 -4.666755417021263 9.217320015384075 -4.59523119041312 C 9.38698213431502 -4.531469282971751 9.568287731996126 -4.4987566521974856 9.737395399558014 -4.434994744756118 C 9.926773821918125 -4.369097506103299 10.059978407554011 -4.198361335263818 10.077828540158015 -3.9986415173095384 C 10.09501653259873 -3.817890370997487 10.022937854621533 -3.6487827034355984 9.86491921444075 -3.524585596767194 C 9.81113743164238 -3.4824472927189856 9.787850474142052 -3.395398427777291 9.762345711165507 -3.324428652538204 C 9.714662893426745 -3.1941325808101926 9.696920449616973 -3.049420773486739 9.629831833961273 -2.9313226318779435 C 9.500644664971372 -2.70288866782713 9.337081511100036 -2.4933060503242004 9.2045676338958 -2.2659809890114957 C 9.091459554608505 -2.0713685584730595 9.002747335559645 -1.862340392339183 8.902946089129678 -1.659411191264919 C 9.220646723598406 -1.7703014650759918 9.543337420388635 -1.8684393573987972 9.854939089797755 -1.9948542695434206 C 10.480900924080926 -2.2456875731331856 11.036651067195269 -2.6446632835442703 11.4744915388085 -3.157538790452536 C 11.551005827738141 -3.246805460870453 11.635282435834558 -3.3294187148597043 11.716232335716644 -3.4153586770632867 L 11.717341238454754 -3.4885462577785944 C 11.689618670001984 -3.5057342502193123 11.653024879644331 -3.5162688262313644 11.635836887203613 -3.5406646864698015 C 11.513303134642376 -3.712544610876966 11.323680766425438 -3.7774154210564443 11.142929620113387 -3.854484161355142 C 10.937228162193843 -3.9420874776658916 10.831882402073322 -4.094007152787063 10.83687246439482 -4.315233249040157 C 10.839644721240097 -4.4510738344587235 10.851842651359316 -4.5869144198772895 10.869585095169088 -4.721646102557746 C 10.88732753897886 -4.861367847559699 10.998772264158989 -4.955624580299112 11.143484071482442 -4.983901600120937 C 11.248829831602963 -5.004416300775985 11.350848883509151 -5.041564542502695 11.486135017558663 -5.079821686967517 C 11.25381989392446 -5.325998094828102 11.299284906187003 -5.566075537629079 11.401858409462246 -5.810588591382499 C 11.411284082736188 -5.833321097513768 11.414056339581464 -5.8582714091212615 11.42181865874824 -5.8815583666215865 C 11.463402511427393 -6.0002109595994355 11.418491950533907 -6.090586532755462 11.328670828746937 -6.165437467577937 C 11.167879931720877 -6.299614698889338 11.142929620113387 -6.382227952878588 11.210018235769086 -6.576285932047969 C 11.238295255590911 -6.658344734668164 11.271007886365178 -6.738740183181194 11.306492773984722 -6.817472277587056 C 11.419600853272017 -7.069193199138196 11.621421151608173 -7.147370842175003 11.857062983456709 -7.016520319077936 C 12.0472398030427 -6.911174558957415 12.222446435664198 -7.014302513601714 12.26181248286713 -7.226102936580867 C 12.26902035066485 -7.266577886521909 12.266248093819572 -7.309270641939173 12.276782669831626 -7.348636689142104 C 12.324465487570388 -7.531051189561322 12.374920562154427 -7.712356787242429 12.42482118536941 -7.893662384923537" fill="#3fb5b4" transform="matrix(1,0,0,1,0,0)" fill-rule="nonzero"></path></g><g clip-path="url(#a0512ba27-7b59-4b8d-b625-1f4afb9db50ba59799a0-8caa-4c97-ac54-e66226ffa3cb)"><path d=" M 4.147416696741741 -2.2920402033570983 C 3.8563297279876707 -2.492751598955145 3.5619160510192676 -2.687918480862635 3.2758191445866944 -2.895837744258399 C 2.8594261664261094 -3.1991226431316893 2.5949528633866965 -3.6116344617088867 2.4180828766580325 -4.09178934731084 C 2.283905645346632 -4.45495499404211 2.1098079154632448 -4.803150453808884 1.9806207464733427 -5.166870551909209 C 1.768640741124912 -5.774795467464293 1.636863398962086 -6.407774044529299 1.588623628551193 -7.049787401221262 C 1.569772282003311 -7.275449108426795 1.5498120327173175 -7.5016652670013855 1.5464853245029857 -7.727881425575979 C 1.5348418457528226 -8.39765867939487 1.683989264028718 -9.036941107915716 1.934601282841747 -9.654599933043402 C 1.9872741629020074 -9.78434155340236 2.0377292374860465 -9.914083173761316 2.0892932148081957 -10.043824794120274 C 1.9290567691511933 -9.83701443346262 1.7477511714700862 -9.642956454293238 1.61191058605152 -9.421730358040145 C 1.2210223708674814 -8.78355683225741 1.0807461744964721 -8.063878955223535 0.9676380952091759 -7.337547661760996 C 0.9571035191971238 -7.129073946996176 0.9388066240182967 -6.9206002322313545 0.9382521726492414 -6.71157206609748 C 0.9376977212801856 -6.335099586508881 0.9482322972922377 -5.958627106920282 0.9543312623518472 -5.5821546273316835 C 0.9421333322326286 -5.164652746432988 1.0380534190792086 -4.766002212082174 1.1555971093189479 -4.3690150318385275 C 1.2897743406303481 -3.9138104578440664 1.5049014718238327 -3.4979719310525343 1.737216595458034 -3.08878682068967 C 1.7449789146248098 -3.0749255364632866 1.759394650220249 -3.0649454118202897 1.7710381289704116 -3.053301933070127 C 1.8070774679590111 -3.048866322117682 1.8481068692691087 -3.0544108358082376 1.8774927918290436 -3.037777294736575 C 1.9479081156990758 -2.9989656989026994 2.008897766295167 -2.94019385378283 2.0820853470104765 -2.9069267716395064 C 2.220143737905264 -2.844828218305306 2.362637739752495 -2.7927097896141007 2.505131741599726 -2.7405913609228953 C 2.7368924138648723 -2.6557603014574234 2.898792213629041 -2.507721785919637 2.961445218332298 -2.2620998294281076 C 3.0052468764876727 -2.090774356389998 3.130552885894187 -1.9832107907932564 3.2941160397655227 -1.9859830476385323 C 3.508688719589952 -1.9893097558528634 3.726033656259658 -2.0275669003176855 3.9345073710244782 -2.080239780377946 C 4.016566173644673 -2.10130893240205 4.07811027560982 -2.202219081570128 4.148525599479853 -2.267089891749608 L 4.147416696741741 -2.2920402033570983" fill="#54c5bf" transform="matrix(1,0,0,1,0,0)" fill-rule="nonzero"></path></g><g clip-path="url(#a0512ba27-7b59-4b8d-b625-1f4afb9db50ba59799a0-8caa-4c97-ac54-e66226ffa3cb)"><path d=" M 11.715677884347585 -3.4148042256942297 C 11.634727984465501 -3.3288642634906456 11.550451376369084 -3.246251009501396 11.473937087439442 -3.156984339083481 C 11.036147817192408 -2.644296038709758 10.480625756438165 -2.245347490284537 9.854939089797753 -1.9942998181743636 C 9.543337420388633 -1.8684393573987919 9.220092272229351 -1.7703014650759918 8.902391637760623 -1.658856739895862 L 8.851936563176583 -1.6322430741812042 C 8.814788321449873 -1.4758877881075882 8.702789144900688 -1.3733142848323432 8.579146489601339 -1.2934732876883697 C 8.360692650193522 -1.152642639948306 8.133922040249875 -1.2729585870333224 8.107308374535217 -1.5324418277512368 C 8.099237239668495 -1.534237262637637 8.091099089612046 -1.5357169262842643 8.08291251429678 -1.5368774387036783 C 8.027467377391243 -1.5230161544772969 7.97257669185476 -1.498620294238858 7.916577103580169 -1.4975113915007476 C 7.558955970539452 -1.4875312668577525 7.201334837498736 -1.4819867531671989 6.843713704458021 -1.4775511422147538 C 6.803238754516979 -1.4769966908456986 6.762763804575937 -1.491966877810194 6.722288854634894 -1.4997291969769684 L 6.4955182446912465 -1.5025014538222479 C 6.55872570076356 -1.3577896464987944 6.568151374037501 -1.2114144850681736 6.511597334393853 -1.0622670667922787 C 6.489973731000694 -1.0046041244105197 6.477775800881474 -0.9430600224453762 6.452271037904928 -0.8870604341707828 C 6.3563509510583485 -0.6780322680369064 6.323083868915026 -0.4795386779150821 6.5265675213583485 -0.30932210761508294 C 6.530448680941736 -0.30599539940075005 6.527121972727403 -0.2943519206505876 6.5265675213583485 -0.2649659980906538 L 5.944393583850205 -0.27051051178120744 C 6.294252397724146 -0.2638570953525434 6.644665662967142 -0.24167904059032885 6.993970025472028 -0.25332251934048955 C 7.855587452984078 -0.2827084419004251 8.702789144900688 -0.40579664583071917 9.511733692352477 -0.7246061830375581 C 10.11160704572257 -0.9621108936477718 10.66084411687018 -1.3115227611096127 11.13017723862511 -1.7542223753733843 C 11.427829268815637 -2.034217078401541 11.683649406890996 -2.3555794562319736 11.889775614230974 -2.708433181517682 C 11.864825302623483 -2.8232046149121466 11.842092796492214 -2.9379760483066075 11.813815776670387 -3.05163857896296 C 11.783875402741396 -3.173617880155142 11.748390515121853 -3.2939338272401564 11.715677884347585 -3.4148042256942297" fill="#54c5bf" transform="matrix(1,0,0,1,0,0)" fill-rule="nonzero"></path></g><g clip-path="url(#a0512ba27-7b59-4b8d-b625-1f4afb9db50ba59799a0-8caa-4c97-ac54-e66226ffa3cb)"><path d=" M 5.944948035219262 -0.27051051178120744 L 6.527121972727404 -0.2649659980906538 C 6.527676424096459 -0.2943519206505876 6.531003132310792 -0.306549850769807 6.527121972727404 -0.30932210761508294 C 6.3230838689150275 -0.4795386779150821 6.356350951058349 -0.6780322680369064 6.452825489273984 -0.887614885539838 C 6.478330252250531 -0.9430600224453762 6.49052818236975 -1.0046041244105197 6.512151785762909 -1.0622670667922787 C 6.568151374037502 -1.2119689364372288 6.55872570076356 -1.3577896464987944 6.496072696060303 -1.503055905191303 L 6.450607683797763 -1.5385407928108457 C 6.283717821712095 -1.5618277503111706 6.112392348673985 -1.5679267153707812 5.951047000278872 -1.6122828248952104 C 5.587326902178546 -1.712638522694233 5.2252701581853875 -1.8213109910290868 4.869866830620893 -1.9477259031737102 C 4.623135971391251 -2.035883670853515 4.388603042280829 -2.1595263261528626 4.149080050848908 -2.267089891749608 C 4.07811027560982 -2.2027735329391813 4.016566173644675 -2.10130893240205 3.9345073710244787 -2.080794231747001 C 3.725425625711887 -2.024625787652372 3.5105147123609006 -1.9929938783279866 3.2941160397655227 -1.9865374990075875 C 3.1305528858941876 -1.9837652421623115 3.0052468764876727 -2.090774356389998 2.961445218332299 -2.262654280797163 C 2.898792213629042 -2.507721785919637 2.7368924138648727 -2.6563147528264768 2.505131741599727 -2.7411458122919488 C 2.363192191121551 -2.7927097896141007 2.2201437379052646 -2.8453826696743594 2.082085347010477 -2.9074812230085616 C 2.008897766295168 -2.94019385378283 1.9484625670681326 -2.9995201502717546 1.8774927918290447 -3.03833174610563 C 1.8481068692691096 -3.054410835808236 1.807077467959012 -3.0494207734867373 1.7710381289704127 -3.0538563844391806 C 2.3199449843352324 -2.165070839843416 2.993048946368456 -1.4032546587613322 3.9156560244765966 -0.8770803095277842 C 4.5488394879378315 -0.5161324682727368 5.2186167417567235 -0.30544094803169664 5.944948035219262 -0.27051051178120744" fill="#65cab0" transform="matrix(1,0,0,1,0,0)" fill-rule="nonzero"></path></g><g clip-path="url(#a0512ba27-7b59-4b8d-b625-1f4afb9db50ba59799a0-8caa-4c97-ac54-e66226ffa3cb)"><path d=" M 12.42482118536941 -7.893662384923535 C 12.374920562154427 -7.7123567872424275 12.324465487570388 -7.531051189561321 12.276782669831626 -7.348636689142103 C 12.266248093819572 -7.309270641939171 12.26902035066485 -7.266577886521907 12.26181248286713 -7.2261029365808644 C 12.222446435664198 -7.014302513601713 12.0472398030427 -6.911174558957414 11.857062983456709 -7.016520319077934 C 11.621421151608173 -7.147370842175002 11.419600853272017 -7.069193199138194 11.306492773984722 -6.817472277587055 C 11.270671192489422 -6.738591046254305 11.238479319053694 -6.658111362664983 11.210018235769084 -6.576285932047957 C 11.142929620113387 -6.382227952878587 11.167879931720877 -6.299614698889337 11.328670828746937 -6.165437467577936 C 11.418491950533907 -6.090586532755461 11.463402511427393 -6.000210959599435 11.42181865874824 -5.881558366621585 C 11.414056339581464 -5.858271409121259 11.411284082736188 -5.8333210975137675 11.401858409462246 -5.810588591382498 C 11.299284906187003 -5.566075537629078 11.25381989392446 -5.3259980948281 11.486135017558663 -5.079821686967515 C 11.350848883509151 -5.0415645425026945 11.248829831602963 -5.0044163007759845 11.143484071482442 -4.9839016001209355 C 10.998772264158989 -4.95562458029911 10.88732753897886 -4.861367847559698 10.869585095169088 -4.721646102557743 C 10.851207785191665 -4.586880629533693 10.840286946964701 -4.4512030969851475 10.83687246439482 -4.315233249040158 C 10.831882402073322 -4.094007152787062 10.937228162193843 -3.94208747766589 11.142929620113387 -3.85448416135514 C 11.323680766425438 -3.7774154210564426 11.513857586011431 -3.7125446108769644 11.635836887203613 -3.540664686469798 C 11.653024879644331 -3.5162688262313626 11.689618670001984 -3.5057342502193105 11.717341238454754 -3.4885462577785926 C 11.746172709645633 -3.516823277600418 11.780548694527067 -3.5417735892079083 11.802726749289281 -3.575040671351232 C 12.016190526375599 -3.89163240308185 12.227990949354753 -4.209887488919634 12.439791372333906 -4.527588123388362 L 12.695947904837487 -4.913486276250902 C 12.794085797160289 -5.424135987150902 12.7951946998984 -5.9419935658486205 12.728660535611755 -6.450979922641452 C 12.665453079539443 -6.93667932193396 12.529058042751819 -7.412953047952526 12.42482118536941 -7.893662384923535" fill="#53c4a1" transform="matrix(1,0,0,1,0,0)" fill-rule="nonzero"></path></g><g clip-path="url(#a0512ba27-7b59-4b8d-b625-1f4afb9db50ba59799a0-8caa-4c97-ac54-e66226ffa3cb)"><path d=" M 12.695947904837487 -4.912931824881848 L 12.439791372333906 -4.527033672019308 C 12.227436497985696 -4.2093330375505795 12.016190526375599 -3.891077951712795 11.802726749289281 -3.5744862199821767 C 11.780548694527067 -3.541219137838853 11.746172709645633 -3.516823277600418 11.717341238454754 -3.4879918064095374 L 11.716232335716644 -3.4148042256942297 C 11.748944966490908 -3.2939338272401564 11.783875402741398 -3.1730634287860866 11.814370228039442 -3.05163857896296 C 11.842092796492214 -2.9379760483066075 11.864825302623483 -2.8232046149121466 11.889775614230974 -2.708433181517684 C 12.117655126912732 -3.0205893022958588 12.29785182185573 -3.3593590887886915 12.412068803881136 -3.7269603464724046 C 12.521295723585045 -4.076264708977289 12.602800074836185 -4.434440293387061 12.693730099361266 -4.7898436209515545 C 12.703710224004261 -4.828100765416376 12.695393453468432 -4.8719024235717505 12.695947904837487 -4.912931824881848" fill="#65cab0" transform="matrix(1,0,0,1,0,0)" fill-rule="nonzero"></path></g><g clip-path="url(#a0512ba27-7b59-4b8d-b625-1f4afb9db50ba59799a0-8caa-4c97-ac54-e66226ffa3cb)"><path d=" M 7.134800673212093 -11.970543301587696 L 7.7236280271489 -11.932286157122874 L 7.826755981793199 -11.9245238379561 C 7.789607740066489 -11.94614744134926 7.753013949708834 -11.98440458581408 7.714756805244014 -11.986622391290302 C 7.244582044285058 -12.01212715426685 6.7744072833261 -12.034305209029064 6.303678070998089 -12.050938750100725 C 6.260430864211769 -12.05260210420789 6.215520303318284 -12.012681605635905 6.171164193793855 -11.9916124536118 L 6.17171864516291 -11.98329568307597 C 6.2005501163537895 -11.980523426230693 6.229381587544669 -11.973315558432972 6.257658607366492 -11.974424461171083 C 6.4993994042746355 -11.985513488552192 6.741140201182779 -12.000483675516685 6.982326546721866 -12.007691543314406 C 7.0327816213059045 -12.009354897421572 7.0837911472589985 -11.983850134445024 7.134800673212093 -11.970543301587696" fill="#369c9a" transform="matrix(1,0,0,1,0,0)" fill-rule="nonzero"></path></g><g clip-path="url(#a0512ba27-7b59-4b8d-b625-1f4afb9db50ba59799a0-8caa-4c97-ac54-e66226ffa3cb)"><path d=" M 0.9543312623518468 -5.582709078700739 C 0.9482322972922377 -5.9591815582893375 0.938252172649241 -6.335654037877936 0.938252172649241 -6.712126517466534 C 0.9388066240182964 -6.92115468360041 0.9571035191971237 -7.129628398365231 0.9676380952091758 -7.338102113130051 C 0.9554401650899575 -7.3015083227723965 0.9327076589586872 -7.265468983783798 0.9321532075896318 -7.228875193426142 C 0.9249453397919121 -6.720997739371421 0.9199552774704136 -6.213120285316698 0.9171830206251368 -5.7046883798929215 C 0.9171830206251368 -5.664213429951879 0.9415788808635732 -5.623184028641782 0.9543312623518468 -5.582709078700739" fill="#369c9a" transform="matrix(1,0,0,1,0,0)" fill-rule="nonzero"></path></g><g clip-path="url(#a0512ba27-7b59-4b8d-b625-1f4afb9db50ba59799a0-8caa-4c97-ac54-e66226ffa3cb)"><path d=" M 7.134800673212093 -11.970543301587696 C 7.0837911472589985 -11.983850134445024 7.0327816213059045 -12.009354897421572 6.982326546721866 -12.007691543314406 C 6.741140201182779 -12.000483675516685 6.4993994042746355 -11.985513488552192 6.257658607366492 -11.974424461171083 C 6.229381587544669 -11.973315558432972 6.2005501163537895 -11.980523426230693 6.17171864516291 -11.98329568307597 C 6.1362337575433665 -11.933395059860986 6.0985310644476005 -11.88515779075317 6.0647095309352235 -11.833593813431019 C 5.944948035219262 -11.651733764380856 5.95714596533848 -11.457675785211475 6.0236801296251254 -11.26306335467304 C 6.053620503554116 -11.1765689411004 6.068590690518611 -11.122232706932975 5.952710354386038 -11.077322146039489 C 5.773622562181152 -11.008570176276622 5.462020892772031 -10.479069118828741 5.491406815331967 -10.292773458826137 C 5.549069757713726 -9.932380068940144 5.554059820035223 -9.558679846196823 5.731484258132943 -9.224345670656431 C 5.759498401580554 -9.178172156542763 5.775686319457419 -9.12579948105879 5.77861262450265 -9.071871544166203 C 5.773985333726875 -9.011447621869213 5.754356474558323 -8.953132758708271 5.721504133489947 -8.90220942523526 C 5.6943360164062335 -8.85896221844894 5.6394453308697505 -8.833457455472393 5.605069345988318 -8.793536956900407 C 5.477545531105583 -8.647161795469788 5.47421882289125 -8.50189553677728 5.587881353547601 -8.344985799334609 C 5.604514894619263 -8.321698841834284 5.623366241167146 -8.298411884333959 5.633900817179198 -8.272352669988356 C 5.751998958787992 -7.987364666293893 5.713741814323172 -7.936909591709854 5.406575755866495 -7.932473980757412 C 5.052408351415926 -7.930690974308207 4.700630984661986 -7.990540030305277 4.366979438887669 -8.109343967486076 C 4.076120838929571 -8.214721056227527 3.7510705484007323 -8.155640254235639 3.5158965873876715 -7.954652035519627 C 3.281363658277248 -7.75782179950497 3.06069201339321 -7.55045698747826 2.9886133354160114 -7.242182026283473 C 2.9509106423202462 -7.080282226519304 2.958672961487021 -6.907293399374027 2.945920579998748 -6.739849085919303 C 2.998593460059008 -6.296842442044061 3.1255628235726887 -5.879895012514419 3.4316199792912547 -5.544451934235919 C 3.651737172806238 -5.303265588696831 3.924527246381482 -5.148019205361327 4.271059352041091 -5.163543843694877 C 4.435731408650536 -5.171306162861652 4.600957916629037 -5.163543843694877 4.766184424607538 -5.162989392325822 C 4.9397277031218705 -5.162434940956768 5.081667253600045 -5.105880901313119 5.1603993480059085 -4.938991039227452 C 5.5684755556306635 -4.479905305649603 5.9793240201006945 -4.450519383089667 6.508825077548576 -4.752695379224845 C 6.6285865732645375 -4.8214473489877125 6.672942682788967 -4.940654393334618 6.677932745110466 -5.07815833286035 C 6.685140612908185 -5.29273101268478 6.7816151511238205 -5.372017558459698 6.993415574102973 -5.345403892745039 C 7.062721995234894 -5.3370871222092084 7.134800673212093 -5.335978219471099 7.200780386129682 -5.316017970185104 C 7.354363415358021 -5.270552957922563 7.424778739228054 -5.172969516968818 7.42034312827561 -5.015505328157092 C 7.410917455001669 -4.693923534104975 7.397056170775285 -4.3723417400528595 7.386521594763233 -4.051314397369797 C 7.374323664644014 -3.688148750638529 7.571153900658672 -3.4508435646828275 7.871666542686684 -3.296151632716379 C 8.053801527519218 -3.2083766968435015 8.243444978192592 -3.1371212320112356 8.438315841861264 -3.0832423069991197 C 8.554196177993848 -3.0483118707486287 8.569166364958345 -2.995084539319313 8.554196177993848 -2.884748716877292 C 8.528691415017303 -2.695126348660356 8.423900106265837 -2.549860089967849 8.326871116681145 -2.396831512108564 C 8.258673598287334 -2.2892679465118224 8.203782912750853 -2.173387610379251 8.137803199833265 -2.0641606906753402 C 8.03633859929613 -1.89616192585156 8.045209821201016 -1.7187374877538417 8.08291251429678 -1.5368774387036783 L 8.107862825904274 -1.5324418277512368 C 8.229842127096454 -1.546857563346677 8.352375879657693 -1.5596099448349499 8.474355180849875 -1.5756890345375556 C 8.6007700929945 -1.5928770269782717 8.726076102401013 -1.6133917276333207 8.851936563176585 -1.6322430741812042 L 8.902946089129678 -1.6594111912649172 C 9.00219288419059 -1.861785940970126 9.091459554608505 -2.0708141071040043 9.204567633895802 -2.2659809890114957 C 9.336527059730981 -2.493306050324197 9.50064466497137 -2.7023342164580733 9.629831833961273 -2.9313226318779435 C 9.696365998247916 -3.049420773486739 9.714662893426745 -3.194132580810191 9.761791259796452 -3.3244286525382023 C 9.787850474142054 -3.394843976408236 9.811137431642381 -3.4818928413499304 9.86491921444075 -3.524031145398137 C 10.022937854621533 -3.6482282520665414 10.09501653259873 -3.8178903709974836 10.077828540158015 -3.9980870659404815 C 10.060186730712921 -4.1980147533130205 9.926945013305485 -4.369015524187713 9.737395399558014 -4.434994744756116 C 9.568287731996126 -4.498756652197484 9.38698213431502 -4.531469282971751 9.217320015384075 -4.594676739044063 C 9.026034293059972 -4.666200965652207 8.856926625498083 -4.7732100798798935 8.772095566032611 -4.97613928095416 C 8.744180295877937 -5.0406419778528555 8.710401806446768 -5.102445477746149 8.671185416864533 -5.160771586849599 C 8.457167188409159 -5.491224602806603 8.466038410314045 -5.795063953048948 8.693917922995803 -6.120526906684451 C 8.848609854962252 -6.340644100199436 9.036568869072024 -6.516405184189988 9.295497658420883 -6.606780757346015 L 10.11553123325378 -6.999332326637219 L 10.114976781884724 -6.998223423899107 L 10.11553123325378 -7.024837089613766 C 10.15988734277821 -7.061985331340475 10.202580098195474 -7.101351378543407 10.249708464565181 -7.13461846068673 C 10.47869687998505 -7.29873606592712 10.543013238795472 -7.507209780691941 10.451528762901336 -7.774455340576631 C 10.35918581796164 -8.029268704321773 10.36591383343604 -8.309470760549772 10.47038010944922 -8.559558479159039 C 10.552993363438471 -8.756943166542753 10.548557752486028 -8.939912118331026 10.494775969687655 -9.14672247898868 C 10.402182591055407 -9.500462452446008 10.200362292719252 -9.753846728104314 9.906503067119903 -9.955112575071414 C 9.786741571403944 -10.03717137769161 9.659772207890262 -10.063785043406268 9.523931622471697 -10.077646327632651 C 9.38088316925541 -10.092062063228092 9.281636374194498 -10.153051713824183 9.19403305788375 -10.280021077337864 C 9.085915040917952 -10.436376363411478 8.92900530347528 -10.558910115972717 8.800372585854435 -10.702513020558058 C 8.716650429127073 -10.795660850559361 8.634037175137824 -10.893798742882161 8.571938621803621 -11.001916759847958 C 8.482845955057824 -11.163033729512792 8.331168168892468 -11.280202813005607 8.152773386797758 -11.325716359376298 C 8.000895397342937 -11.363678576706118 7.846574921888825 -11.39109686046027 7.6909153963746375 -11.407775161996492 C 7.479669424764535 -11.435497730449262 7.313334014047923 -11.51478427622418 7.239591981963558 -11.733238115631996 C 7.212423864879845 -11.814742466883136 7.170285560831637 -11.891811207181833 7.134800673212093 -11.970543301587696" fill="#53c4a4" transform="matrix(1,0,0,1,0,0)" fill-rule="nonzero"></path></g><g clip-path="url(#a0512ba27-7b59-4b8d-b625-1f4afb9db50ba59799a0-8caa-4c97-ac54-e66226ffa3cb)"><path d=" M 4.148525599479853 -2.267089891749608 C 4.388603042280829 -2.1595263261528643 4.622581520022197 -2.035883670853517 4.869312379251838 -1.9477259031737137 C 5.225560514611591 -1.8229640062368926 5.586187787205693 -1.7110770832012872 5.950492548909852 -1.6122828248951997 C 6.111837897304929 -1.5679267153707812 6.283717821712095 -1.5618277503111724 6.450607683797763 -1.5379863414417922 C 6.3740933948681215 -1.5889958673948854 6.304232522367144 -1.6644012535864174 6.220510365639783 -1.686579308348632 C 5.953819257124148 -1.7586579863258294 5.786374943669426 -1.9133499182922797 5.698771627358676 -2.178932124069803 C 5.640333295889067 -2.3521988935985725 5.5260613109444074 -2.501181481478639 5.373863125092228 -2.6025329700281077 C 5.131013425445974 -2.7710861862209413 4.864876768299395 -2.82764022586459 4.5765620563906015 -2.813778941638205 C 4.356444862875618 -2.7965909491974887 4.254980262338485 -2.7073242787795735 4.2050796391235 -2.491642696217033 C 4.18955500078995 -2.423999629192279 4.16682249465868 -2.358574367643742 4.147416696741741 -2.2920402033570983 L 4.148525599479853 -2.267089891749608" fill="#53c4a1" transform="matrix(1,0,0,1,0,0)" fill-rule="nonzero"></path></g><g clip-path="url(#a0512ba27-7b59-4b8d-b625-1f4afb9db50ba59799a0-8caa-4c97-ac54-e66226ffa3cb)"><path d=" M 4.037080874299722 -9.013099699046332 C 4.201198479540113 -9.011436344939167 4.365870536149559 -9.004228477141448 4.529988141389949 -9.010327442201056 C 4.695769100737506 -9.01587195589161 4.774501195143369 -9.14062351392907 4.730699536987995 -9.300859959586072 C 4.692996843892229 -9.43780944774275 4.672482143237181 -9.58030344958998 4.629789387819917 -9.716144035008547 C 4.578978444533364 -9.880042736373692 4.517487557478244 -10.040437640559642 4.445711533293537 -10.196298920610486 C 4.425196832638484 -10.240100578765874 4.350900349185064 -10.27780327186164 4.297673017755748 -10.283347785552193 C 4.090308205729038 -10.30552584031441 3.4953818867326225 -9.915192076499425 3.482075053875293 -9.665134509055452 C 3.471540477863242 -9.472185432624183 3.479857248399072 -9.271474037026138 3.6079355146508636 -9.140069062560015 C 3.7055189556046093 -9.039713364760992 3.8829433937023285 -9.016426407260665 4.0254373955495595 -8.959317916247961 L 4.037080874299722 -9.013099699046332" fill="#53c4a1" transform="matrix(1,0,0,1,0,0)" fill-rule="nonzero"></path></g><g clip-path="url(#a0512ba27-7b59-4b8d-b625-1f4afb9db50ba59799a0-8caa-4c97-ac54-e66226ffa3cb)"><path d=" M 4.576562056390601 -2.813778941638205 C 4.8648767682993945 -2.8281946772336433 5.131013425445974 -2.7716406375899965 5.373863125092227 -2.603087421397163 C 5.531327313903954 -2.4938605016932556 5.642217587715028 -2.3508120484769677 5.698771627358676 -2.178932124069801 C 5.786374943669425 -1.9139043696613331 5.953819257124147 -1.7592124376948846 6.2205103656397815 -1.6871337597176872 C 6.304232522367143 -1.6644012535864139 6.374093394868121 -1.5895503187639406 6.450607683797761 -1.5385407928108457 L 6.495518244691247 -1.503055905191303 L 6.722288854634894 -1.4997291969769684 C 6.615279740407208 -1.6677279618007486 6.483874765941085 -1.7991329362668704 6.277618856652486 -1.845152399898467 C 6.196114505401346 -1.8634492950772952 6.125144730162258 -1.9255478484114956 6.049739343970727 -1.9687950551978144 C 5.9643538331362 -2.0175867756746886 5.963799381767145 -2.080794231747001 6.0203534214107925 -2.1534273610932537 C 6.225500427961281 -2.417346212763613 6.222728171116003 -2.4151284072873924 5.9926308529580234 -2.6557603014574234 C 5.871206003134897 -2.7827296649711037 5.740909931406884 -2.905263417532341 5.689345954084735 -3.0849056611062817 C 5.6666134479534644 -3.1641922068812 5.6089505055717055 -3.200785997238855 5.517466029677569 -3.18692471301247 C 5.346140556639458 -3.161419950035924 5.317309085448579 -3.1924692267030252 5.26796291360265 -3.362131345633969 C 5.225824609554443 -3.5062887015883657 5.167052764434573 -3.6454559952212655 5.108835370683759 -3.7840688374851084 C 5.096082989195485 -3.812900308675987 5.056716941992554 -3.8389595230215896 5.024558762587342 -3.8494940990336417 C 4.9940639372892965 -3.860028675045694 4.956361244193531 -3.8483851962955313 4.921430807943042 -3.8467218421883658 C 4.926975321633596 -3.81622701689032 4.93251983532415 -3.785732191592274 4.936955446276593 -3.755237366294228 C 4.944717765443368 -3.701455583495857 4.958024598300697 -3.646564897959376 4.956361244193531 -3.592783115161005 C 4.95414343871731 -3.531793464564913 4.9291931271098175 -3.470803813968823 4.928638675740762 -3.4098141633727312 C 4.928084224371707 -3.3039139518831533 4.929747578478874 -3.2057760595603533 4.808322728655747 -3.153103179500093 C 4.7733922924052585 -3.1375785411665422 4.758422105440763 -3.0799155987847833 4.730145085618939 -3.044985162534294 C 4.7051947740114475 -3.01449033723625 4.676917754189622 -2.969579776342764 4.645314026153466 -2.9651441653903223 C 4.53109704412806 -2.950173978425825 4.551611744783108 -2.885303168246347 4.576562056390601 -2.813778941638205" fill="#369c9a" transform="matrix(1,0,0,1,0,0)" fill-rule="nonzero"></path></g><g clip-path="url(#a0512ba27-7b59-4b8d-b625-1f4afb9db50ba59799a0-8caa-4c97-ac54-e66226ffa3cb)"><path d=" M 5.1603993480059085 -4.938991039227451 C 5.08111280223099 -5.105880901313118 4.93972770312187 -5.162434940956767 4.7661844246075376 -5.162434940956767 C 4.600957916629037 -5.162989392325822 4.435731408650535 -5.1707517114925965 4.271059352041089 -5.163543843694877 C 3.924527246381481 -5.148019205361327 3.6517371728062376 -5.303265588696831 3.431619979291254 -5.544451934235919 C 3.1255628235726878 -5.879340561145364 2.9985934600590074 -6.29684244204406 2.9459205799987473 -6.739294634550248 C 2.8599806177951645 -6.734859023597806 2.8461193335687796 -6.669988213418326 2.850554944521223 -6.607335208715069 C 2.8760597074977703 -6.239179499662302 2.923742525236532 -5.877122755669143 3.169918933097118 -5.576610113641131 C 3.279700304170082 -5.4429873336987855 3.376729293754772 -5.297721075006278 3.498154143577899 -5.175741773814096 C 3.5835396544124265 -5.090356262979569 3.698865539175944 -5.034356674704975 3.803102396558354 -4.968376961787386 C 3.8213992917371815 -4.956733483037223 3.850230762928061 -4.956733483037223 3.874072171797442 -4.957842385775334 C 4.200089576802002 -4.975584829585106 4.525552530437506 -5.002198495299764 4.85212438681112 -5.009406363097484 C 4.954143438717309 -5.011624168573705 5.057825844730664 -4.963941350834943 5.1603993480059085 -4.938991039227451" fill="#369c9a" transform="matrix(1,0,0,1,0,0)" fill-rule="nonzero"></path></g><g clip-path="url(#a0512ba27-7b59-4b8d-b625-1f4afb9db50ba59799a0-8caa-4c97-ac54-e66226ffa3cb)"><path d=" M 5.31841798818669 -8.504113342253502 C 5.196438686994507 -8.679319974875 5.277388586876592 -8.884466981425488 5.320635793662911 -9.092940696190308 C 5.3300614669368525 -9.136742354345682 5.287923162888644 -9.19107858851311 5.2690718163407615 -9.240424760359037 C 5.2180622903876674 -9.206048775477605 5.159844896636852 -9.178326207024835 5.117706592588645 -9.135079000238516 C 5.092756280981153 -9.109019785892915 5.08832067002871 -9.059673614046986 5.080003899492879 -9.020307566844055 C 5.042301206397114 -8.845100934222557 4.8953715935974405 -8.769695548031025 4.7728378410362025 -8.668230947493893 C 4.719610509606886 -8.624429289338519 4.669709886391903 -8.545697194932655 4.669155435022848 -8.481935287491288 C 4.668600983653792 -8.44423259439552 4.7623032650241495 -8.393223068442428 4.822184012882131 -8.3699361109421 C 4.913668488776267 -8.334451223322557 5.0112519297300135 -8.313382071298452 5.108280919314703 -8.29453072475057 C 5.227487963661608 -8.2717982186193 5.321190245031967 -8.353857021239495 5.31841798818669 -8.504113342253502" fill="#369c9a" transform="matrix(1,0,0,1,0,0)" fill-rule="nonzero"></path></g><g clip-path="url(#a0512ba27-7b59-4b8d-b625-1f4afb9db50ba59799a0-8caa-4c97-ac54-e66226ffa3cb)"><path d=" M 3.075662200357705 -8.376589527370765 C 3.2309085836932097 -8.37603507600171 3.384491612921548 -8.512430112789332 3.3872638697668247 -8.653260760529397 C 3.3894816752430463 -8.770804450769136 3.3035417130394635 -8.845100934222556 3.1638199680375094 -8.845655385591611 C 2.971425342975295 -8.846209836960666 2.8217234733303442 -8.74751749326881 2.8183967651160113 -8.617775872909853 C 2.8150700569016793 -8.479717482015065 2.9242969766055884 -8.37714397873982 3.075662200357705 -8.376589527370765" fill="#53c4a1" transform="matrix(1,0,0,1,0,0)" fill-rule="nonzero"></path></g><g clip-path="url(#a0512ba27-7b59-4b8d-b625-1f4afb9db50ba59799a0-8caa-4c97-ac54-e66226ffa3cb)"><path d=" M 10.11553123325378 -6.9993323266372185 L 9.295497658420883 -6.606226305976958 C 9.192924155145638 -6.507533962285102 9.097004068299059 -6.400524848057414 8.986113794487984 -6.3129215317466665 C 8.851936563176585 -6.207575771626145 8.75657092769906 -6.091140984124516 8.823659543354761 -5.9148254487649075 C 8.846946500855086 -5.853281346799761 8.902946089129678 -5.776212606501065 8.958945677404271 -5.760133516798459 C 9.07648936764401 -5.726866434655136 9.06096472931046 -5.654233305308883 9.059301375203294 -5.570511148581521 C 9.055315577757087 -5.468962957372794 9.058279567624053 -5.3672610550625 9.068172597108179 -5.266117346970128 C 9.078707173120232 -5.177959579290317 9.129716699073327 -5.106989804051229 9.227300140027072 -5.105326449944063 C 9.325438032349872 -5.103663095836897 9.439100563006225 -5.13083121292061 9.45628855544694 -5.236176973041131 C 9.496763505387984 -5.489561248699436 9.703573866045637 -5.5483330938193065 9.885988366464856 -5.632609701915723 C 10.085036407955734 -5.724094177809859 10.152125023611434 -6.002983216444712 10.002423153966484 -6.1698730785303795 C 9.941987954739448 -6.2375161455551345 9.866582568547917 -6.248605172936242 9.792286085094497 -6.193160036030705 C 9.74293991324857 -6.156011794303995 9.705237220152803 -6.102784462874679 9.653673242830653 -6.0711807348385225 C 9.612089390151501 -6.045675971861976 9.546109677233911 -6.017398952040152 9.511733692352477 -6.0340324931118134 C 9.475139901994824 -6.051774936921585 9.445753979434889 -6.11830910120823 9.442427271220557 -6.165991918946991 C 9.429120438363228 -6.353950933056764 9.56551547515085 -6.463177852760672 9.684722519497754 -6.574068126571746 C 9.792286085094497 -6.67442382437077 9.917592094501012 -6.756482626990965 10.02792791694303 -6.855174970682821 C 10.067848415515018 -6.8906598583023655 10.086699762062901 -6.950540606160345 10.11553123325378 -6.9993323266372185" fill="#369c9a" transform="matrix(1,0,0,1,0,0)" fill-rule="nonzero"></path></g><g clip-path="url(#a0512ba27-7b59-4b8d-b625-1f4afb9db50ba59799a0-8caa-4c97-ac54-e66226ffa3cb)"><path d=" M 10.11553123325378 -7.025391540982821 L 10.114976781884724 -6.998777875268162 C 10.11664013599189 -7.004876840327772 10.118857941468113 -7.010421354018327 10.119966844206223 -7.016520319077935 C 10.119966844206223 -7.019292575923211 10.117194587360945 -7.022619284137544 10.11553123325378 -7.025391540982821" fill="#369c9a" transform="matrix(1,0,0,1,0,0)" fill-rule="nonzero"></path></g><g clip-path="url(#a0512ba27-7b59-4b8d-b625-1f4afb9db50ba59799a0-8caa-4c97-ac54-e66226ffa3cb)"><path d=" M 8.851936563176585 -1.6327975255502594 C 8.726076102401015 -1.613946179002376 8.600215641625446 -1.5928770269782717 8.474355180849875 -1.5762434859066108 C 8.352375879657693 -1.5596099448349499 8.229842127096456 -1.5474120147157322 8.107862825904274 -1.532996279120292 C 8.134476491618932 -1.2729585870333224 8.360692650193524 -1.152642639948306 8.579146489601342 -1.2940277390574266 C 8.703343596269745 -1.3738687362013984 8.81534277281893 -1.4764422394766434 8.851936563176585 -1.6327975255502594" fill="#65cab0" transform="matrix(1,0,0,1,0,0)" fill-rule="nonzero"></path></g></g></g><defs><clipPath id="SvgjsClipPath1001"><path d=" M 0.9171830206251368 -12.050989145062584 h 11.857528489999726 v 11.800989145062584 h -11.857528489999726 Z"></path></clipPath><clipPath id="a0512ba27-7b59-4b8d-b625-1f4afb9db50ba59799a0-8caa-4c97-ac54-e66226ffa3cb"><path d=" M 0.9171830206251368 -0.24999581112615843 L 12.77467999924335 -0.24999581112615843 L 12.77467999924335 -12.050938750100723 L 0.9171830206251368 -12.050938750100723 Z"></path></clipPath></defs></svg>